<svg version="1.1" xmlns="http://www.w3.org/2000/svg" xmlns:xlink="http://www.w3.org/1999/xlink" x="0px" y="0px" viewBox="0 0 210.437 155.24" enable-background="new 0 0 210.437 155.24" xml:space="preserve"> <g id="Layer_2"> <g id="Flat"> <g class="color1"> <path fill="#ED1F24" d="M81.848,142.841c0.775-4.562,9.864-18.961,15.405-20.832l0,0c5.534-1.873,10.517,7.767,9.733,12.33l0,0 c-0.775,4.557-7.037,10.158-13.983,12.509l0,0C86.064,149.192,81.064,147.398,81.848,142.841z"/> <path fill="#ED1F24" d="M153.796,107.044c-4.366-1.562-10.32-10.635-5.961-14.532l0,0c4.349-3.894,21.369-4.721,25.729-3.154l0,0 c4.358,1.562,3.465,6.791-1.995,11.679l0,0C166.108,105.917,158.147,108.61,153.796,107.044z"/> <path fill="#ED1F24" d="M196.377,54.824c-6.946,2.351-24.458,3.918-23.832,0.279l0,0c0.616-3.633,19.705-14.443,26.651-16.789 l0,0c6.938-2.35,11.938-0.557,11.161,4.004l0,0C209.576,46.877,203.316,52.479,196.377,54.824z"/> <path fill="#ED1F24" d="M185.692,15.196c-5.46,4.89-24.271,16.181-27.745,14.929l0,0c-3.476-1.243,6.498-15.703,11.964-20.59l0,0 c5.452-4.883,13.415-7.575,17.779-6.014l0,0C192.043,5.087,191.151,10.315,185.692,15.196z"/> <path fill="#ED1F24" d="M128.589,12.397c-0.774,4.562-9.864,18.963-15.405,20.832l0,0c-5.532,1.875-10.515-7.766-9.732-12.329 l0,0c0.775-4.555,7.036-10.157,13.983-12.51l0,0C124.373,6.048,129.372,7.839,128.589,12.397z"/> <path fill="#ED1F24" d="M56.641,48.196c4.365,1.561,10.32,10.635,5.96,14.531l0,0c-4.348,3.894-21.368,4.721-25.727,3.154l0,0 c-4.359-1.561-3.467-6.789,1.994-11.679l0,0C44.329,49.321,52.288,46.628,56.641,48.196z"/> <path fill="#ED1F24" d="M14.06,100.416c6.947-2.353,24.458-3.918,23.832-0.279l0,0c-0.616,3.633-19.704,14.442-26.652,16.789l0,0 c-6.938,2.35-11.937,0.558-11.16-4.005l0,0C0.862,108.361,7.12,102.761,14.06,100.416z"/> <path fill="#ED1F24" d="M24.745,140.042c5.46-4.888,24.271-16.178,27.743-14.927l0,0c3.479,1.245-6.496,15.702-11.961,20.59l0,0 c-5.454,4.883-13.416,7.575-17.78,6.014l0,0C18.393,150.152,19.286,144.924,24.745,140.042z"/> <path fill="#ED1F24" d="M118.828,128.796c-1.942-3.315-0.245-16.019,5.112-19.142l0,0c5.35-3.119,17.257,1.649,19.19,4.969l0,0 c1.94,3.311-1.932,9.173-8.646,13.09l0,0C127.774,131.623,120.759,132.109,118.828,128.796z"/> <path fill="#ED1F24" d="M180.863,81.21c-6.121,0.426-18.821-3.638-16.122-7.715l0,0c2.688-4.074,22.229-10.372,28.347-10.794l0,0 c6.113-0.427,8.336,3.375,4.961,8.489l0,0C194.67,76.3,186.974,80.789,180.863,81.21z"/> <path fill="#ED1F24" d="M198.009,31.558c-6.716,3.919-26.372,10.877-27.913,8.229l0,0c-1.548-2.64,14.181-16.315,20.897-20.229 l0,0c6.707-3.913,13.722-4.401,15.664-1.086l0,0C208.588,21.788,204.717,27.648,198.009,31.558z"/> <path fill="#ED1F24" d="M161.434,8.521c-3.373,5.113-18.474,19.018-23.351,19.352l0,0c-4.877,0.341-2.175-12.7,1.207-17.815l0,0 c3.372-5.106,11.069-9.598,17.19-10.024l0,0C162.592-0.39,164.812,3.411,161.434,8.521z"/> <path fill="#ED1F24" d="M91.607,26.444c1.943,3.312,0.245,16.019-5.111,19.139l0,0c-5.349,3.121-17.256-1.647-19.19-4.966l0,0 c-1.938-3.31,1.931-9.173,8.648-13.091l0,0C82.663,23.616,89.676,23.129,91.607,26.444z"/> <path fill="#ED1F24" d="M29.574,74.032c6.121-0.429,18.821,3.635,16.121,7.713l0,0c-2.688,4.073-22.229,10.371-28.347,10.793l0,0 c-6.113,0.426-8.336-3.374-4.96-8.489l0,0C15.766,78.939,23.462,74.452,29.574,74.032z"/> <path fill="#ED1F24" d="M12.428,123.683c6.716-3.919,26.373-10.879,27.914-8.23l0,0c1.547,2.64-14.182,16.315-20.898,20.229l0,0 c-6.708,3.913-13.722,4.401-15.664,1.086l0,0C1.849,133.453,5.719,127.593,12.428,123.683z"/> <path fill="#ED1F24" d="M49.003,146.72c3.374-5.113,18.475-19.018,23.352-19.353l0,0c4.876-0.34,2.174,12.701-1.208,17.816l0,0 c-3.371,5.108-11.067,9.597-17.19,10.024l0,0C47.845,155.63,45.625,151.829,49.003,146.72z"/> </g> </g> </g> </svg>
