<svg version="1.1" xmlns="http://www.w3.org/2000/svg" xmlns:xlink="http://www.w3.org/1999/xlink" x="0px" y="0px" viewBox="0 0 167.33 196.306" enable-background="new 0 0 167.33 196.306" xml:space="preserve"> <g id="Layer_1"> </g> <g id="Layer_2"> <g id="Spiral"> <g class="color2"> <circle fill="#ED1F24" cx="166.129" cy="168.73" r="1.2"/> <circle fill="#ED1F24" cx="143.136" cy="181.819" r="5.081"/> <circle fill="#ED1F24" cx="117.374" cy="187.832" r="7.894"/> <circle fill="#ED1F24" cx="90.959" cy="186.314" r="9.992"/> <circle fill="#ED1F24" cx="66.044" cy="177.415" r="11.464"/> <circle fill="#ED1F24" cx="44.689" cy="161.809" r="12.355"/> <circle fill="#ED1F24" cx="28.987" cy="140.573" r="12.418"/> <circle fill="#ED1F24" cx="22.708" cy="114.975" r="11.601"/> <circle fill="#ED1F24" cx="27.134" cy="88.987" r="10.498"/> <circle fill="#ED1F24" cx="41.549" cy="66.921" r="9.6"/> <circle fill="#ED1F24" cx="64.028" cy="53.414" r="8.88"/> <circle fill="#ED1F24" cx="90.184" cy="54.366" r="8.16"/> <circle fill="#ED1F24" cx="111.456" cy="69.606" r="7.32"/> <circle fill="#ED1F24" cx="117.509" cy="94.668" r="6.44"/> <circle fill="#ED1F24" cx="102.924" cy="115.894" r="5.509"/> <circle fill="#ED1F24" cx="78.027" cy="113.654" r="4.527"/> <circle fill="#ED1F24" cx="75.236" cy="90.216" r="3.49"/> <circle fill="#ED1F24" cx="94.039" cy="96.423" r="2.394"/> <circle fill="#ED1F24" cx="87.77" cy="97.737" r="1.2"/> </g> <g class="color1"> <circle fill="#ED1F24" cx="1.2" cy="36.557" r="1.2"/> <circle fill="#ED1F24" cx="22.438" cy="20.777" r="5.081"/> <circle fill="#ED1F24" cx="47.281" cy="11.687" r="7.894"/> <circle fill="#ED1F24" cx="73.686" cy="9.993" r="9.992"/> <circle fill="#ED1F24" cx="99.495" cy="15.807" r="11.464"/> <circle fill="#ED1F24" cx="122.584" cy="28.708" r="12.356"/> <circle fill="#ED1F24" cx="140.744" cy="47.886" r="12.418"/> <circle fill="#ED1F24" cx="150.078" cy="72.534" r="11.601"/> <circle fill="#ED1F24" cx="148.835" cy="98.867" r="10.498"/> <circle fill="#ED1F24" cx="137.201" cy="122.517" r="9.599"/> <circle fill="#ED1F24" cx="116.525" cy="138.649" r="8.88"/> <circle fill="#ED1F24" cx="90.446" cy="140.874" r="8.16"/> <circle fill="#ED1F24" cx="67.484" cy="128.324" r="7.321"/> <circle fill="#ED1F24" cx="58.437" cy="104.181" r="6.44"/> <circle fill="#ED1F24" cx="70.343" cy="81.343" r="5.508"/> <circle fill="#ED1F24" cx="95.327" cy="80.55" r="4.528"/> <circle fill="#ED1F24" cx="100.939" cy="103.476" r="3.49"/> <circle fill="#ED1F24" cx="81.522" cy="99.594" r="2.394"/> <circle fill="#ED1F24" cx="87.586" cy="97.53" r="1.2"/> </g> </g> </g> </svg>
