<svg version="1.1" xmlns="http://www.w3.org/2000/svg" xmlns:xlink="http://www.w3.org/1999/xlink" x="0px" y="0px" viewBox="0 0 214.164 214.163" enable-background="new 0 0 214.164 214.163" xml:space="preserve"> <g id="Layer_1"> </g> <g id="Layer_2"> <g id="Standard-Half"> <g class="color2_5_"> <path fill="#ED1F24" d="M155.644,25.022c-2.748,6.517-16.597,20.892-21.79,18.692l0,0c-5.191-2.188-4.54-22.136-1.785-28.649l0,0 c2.746-6.508,10.256-9.559,16.772-6.81l0,0C155.347,11.008,158.396,18.518,155.644,25.022z"/> <path fill="#ED1F24" d="M83.572,15.159c2.665,6.55,3.036,26.509-2.19,28.625l0,0c-5.218,2.123-18.863-12.442-21.52-18.997l0,0 c-2.66-6.542,0.492-14.011,7.044-16.674l0,0C73.453,5.459,80.918,8.612,83.572,15.159z"/> <path fill="#ED1F24" d="M25.023,58.521c6.516,2.747,20.891,16.597,18.691,21.789l0,0c-2.188,5.191-22.136,4.541-28.649,1.785l0,0 c-6.508-2.745-9.56-10.256-6.81-16.771l0,0C11.009,58.817,18.517,55.768,25.023,58.521z"/> <path fill="#ED1F24" d="M15.159,130.593c6.551-2.665,26.508-3.037,28.626,2.19l0,0c2.123,5.218-12.443,18.862-18.997,21.52l0,0 c-6.544,2.661-14.011-0.491-16.675-7.044l0,0C5.459,140.712,8.612,133.246,15.159,130.593z"/> <path fill="#ED1F24" d="M182.915,49.693c-5.033,4.968-23.33,12.949-27.285,8.93l0,0c-3.958-4.008,4.276-22.188,9.314-27.15l0,0 c5.026-4.963,13.132-4.908,18.101,0.125l0,0C188.001,36.63,187.947,44.734,182.915,49.693z"/> <path fill="#ED1F24" d="M120.954,12.888c-0.044,7.071-7.339,25.652-12.979,25.608l0,0c-5.632-0.034-12.665-18.714-12.612-25.785 l0,0C95.409,5.648,101.179-0.046,108.251,0l0,0C115.316,0.054,121.007,5.822,120.954,12.888z"/> <path fill="#ED1F24" d="M49.692,31.25c4.97,5.032,12.951,23.329,8.932,27.285l0,0c-4.008,3.959-22.188-4.276-27.152-9.314l0,0 c-4.963-5.026-4.908-13.133,0.126-18.1l0,0C36.631,26.162,44.734,26.218,49.692,31.25z"/> <path fill="#ED1F24" d="M12.887,93.211c7.072,0.045,25.654,7.338,25.609,12.977l0,0c-0.035,5.634-18.714,12.666-25.786,12.614 l0,0C5.647,118.756-0.045,112.986,0,105.913l0,0C0.054,98.849,5.823,93.157,12.887,93.211z"/> <path fill="#ED1F24" d="M132.968,63.339c-1.464,3.474-8.847,11.137-11.615,9.964l0,0c-2.768-1.166-2.42-11.8-0.952-15.271l0,0 c1.463-3.47,5.467-5.096,8.94-3.631l0,0C132.81,55.868,134.436,59.871,132.968,63.339z"/> <path fill="#ED1F24" d="M94.549,58.081c1.421,3.491,1.619,14.131-1.167,15.259l0,0C90.6,74.472,83.327,66.707,81.91,63.213l0,0 c-1.418-3.487,0.262-7.469,3.755-8.888l0,0C89.155,52.91,93.135,54.591,94.549,58.081z"/> <path fill="#ED1F24" d="M63.339,81.195c3.474,1.465,11.136,8.848,9.964,11.615l0,0c-1.167,2.768-11.8,2.421-15.272,0.952l0,0 c-3.469-1.464-5.096-5.468-3.63-8.94l0,0C55.869,81.354,59.871,79.728,63.339,81.195z"/> <path fill="#ED1F24" d="M58.081,119.614c3.492-1.42,14.13-1.618,15.259,1.168l0,0c1.132,2.781-6.633,10.055-10.126,11.472l0,0 c-3.488,1.418-7.469-0.262-8.889-3.755l0,0C52.91,125.009,54.591,121.029,58.081,119.614z"/> <path fill="#ED1F24" d="M147.506,76.49c-2.683,2.647-12.437,6.902-14.545,4.76l0,0c-2.11-2.137,2.279-11.827,4.965-14.473l0,0 c2.679-2.646,7-2.617,9.649,0.066l0,0C150.217,69.526,150.188,73.847,147.506,76.49z"/> <path fill="#ED1F24" d="M114.477,56.87c-0.023,3.77-3.912,13.675-6.918,13.651l0,0c-3.002-0.019-6.751-9.977-6.723-13.746l0,0 c0.024-3.765,3.1-6.8,6.87-6.775l0,0C111.471,50.028,114.505,53.104,114.477,56.87z"/> <path fill="#ED1F24" d="M76.489,66.658c2.649,2.683,6.904,12.436,4.761,14.545l0,0c-2.137,2.11-11.828-2.279-14.474-4.965l0,0 c-2.646-2.68-2.616-7.001,0.067-9.648l0,0C69.527,63.946,73.847,63.976,76.489,66.658z"/> <path fill="#ED1F24" d="M56.87,99.688c3.77,0.024,13.675,3.912,13.652,6.918l0,0c-0.019,3.003-9.976,6.751-13.746,6.724l0,0 c-3.765-0.024-6.8-3.1-6.775-6.87l0,0C50.029,102.693,53.104,99.659,56.87,99.688z"/> </g> <g class="color1_7_"> <path fill="#69BD45" d="M130.591,199.004c-2.664-6.551-3.036-26.507,2.191-28.625l0,0c5.219-2.123,18.863,12.442,21.52,18.997 l0,0c2.662,6.544-0.493,14.011-7.043,16.675l0,0C140.712,208.704,133.244,205.551,130.591,199.004z"/> <path fill="#69BD45" d="M189.141,155.644c-6.516-2.749-20.891-16.598-18.692-21.791l0,0c2.189-5.191,22.136-4.541,28.65-1.785 l0,0c6.508,2.746,9.559,10.257,6.81,16.772l0,0C203.156,155.346,195.646,158.396,189.141,155.644z"/> <path fill="#69BD45" d="M199.005,83.572c-6.551,2.664-26.509,3.036-28.625-2.191l0,0c-2.124-5.218,12.442-18.863,18.996-21.52 l0,0c6.544-2.661,14.011,0.492,16.675,7.044l0,0C208.705,73.452,205.551,80.918,199.005,83.572z"/> <path fill="#69BD45" d="M58.521,189.141c2.748-6.515,16.598-20.891,21.79-18.691l0,0c5.192,2.189,4.54,22.136,1.785,28.65l0,0 c-2.746,6.508-10.255,9.558-16.772,6.81l0,0C58.817,203.156,55.768,195.646,58.521,189.141z"/> <path fill="#69BD45" d="M93.21,201.275c0.045-7.072,7.338-25.651,12.979-25.608l0,0c5.633,0.036,12.666,18.714,12.613,25.786l0,0 c-0.045,7.063-5.817,12.756-12.889,12.71l0,0C98.849,214.109,93.157,208.34,93.21,201.275z"/> <path fill="#69BD45" d="M164.472,182.912c-4.969-5.032-12.952-23.327-8.932-27.284l0,0c4.008-3.958,22.188,4.276,27.152,9.314 l0,0c4.961,5.027,4.906,13.133-0.127,18.101l0,0C177.533,188,169.429,187.945,164.472,182.912z"/> <path fill="#69BD45" d="M201.276,120.953c-7.071-0.046-25.653-7.338-25.608-12.977l0,0c0.035-5.634,18.714-12.667,25.786-12.614 l0,0c7.063,0.046,12.755,5.816,12.709,12.889l0,0C214.11,115.314,208.341,121.007,201.276,120.953z"/> <path fill="#69BD45" d="M31.251,164.472c5.032-4.968,23.328-12.949,27.284-8.931l0,0c3.959,4.008-4.275,22.188-9.313,27.152l0,0 c-5.027,4.962-13.132,4.906-18.102-0.127l0,0C26.162,177.533,26.218,169.43,31.251,164.472z"/> <path fill="#69BD45" d="M119.614,156.082c-1.42-3.492-1.618-14.13,1.168-15.259l0,0c2.782-1.132,10.055,6.633,11.471,10.127l0,0 c1.419,3.488-0.263,7.469-3.754,8.889l0,0C125.009,161.253,121.028,159.572,119.614,156.082z"/> <path fill="#69BD45" d="M150.825,132.969c-3.474-1.466-11.136-8.848-9.964-11.616l0,0c1.167-2.768,11.8-2.421,15.273-0.952l0,0 c3.469,1.464,5.095,5.468,3.63,8.941l0,0C158.295,132.81,154.292,134.436,150.825,132.969z"/> <path fill="#69BD45" d="M156.083,94.55c-3.492,1.42-14.131,1.618-15.259-1.169l0,0c-1.132-2.781,6.632-10.055,10.126-11.471l0,0 c3.488-1.419,7.469,0.262,8.889,3.755l0,0C161.253,89.154,159.573,93.135,156.083,94.55z"/> <path fill="#69BD45" d="M81.196,150.824c1.465-3.473,8.848-11.136,11.615-9.964l0,0c2.768,1.167,2.42,11.8,0.952,15.272l0,0 c-1.463,3.47-5.466,5.096-8.94,3.631l0,0C81.354,158.296,79.728,154.293,81.196,150.824z"/> <path fill="#69BD45" d="M99.688,157.293c0.024-3.77,3.912-13.674,6.918-13.65l0,0c3.003,0.019,6.752,9.976,6.723,13.745l0,0 c-0.024,3.766-3.101,6.8-6.87,6.775l0,0C102.693,164.135,99.659,161.059,99.688,157.293z"/> <path fill="#69BD45" d="M137.675,147.504c-2.649-2.682-6.904-12.435-4.761-14.544l0,0c2.136-2.11,11.828,2.279,14.474,4.966l0,0 c2.645,2.68,2.615,7-0.068,9.648l0,0C144.637,150.217,140.317,150.188,137.675,147.504z"/> <path fill="#69BD45" d="M157.293,114.477c-3.77-0.025-13.675-3.912-13.651-6.918l0,0c0.019-3.003,9.976-6.752,13.746-6.725l0,0 c3.765,0.025,6.799,3.101,6.775,6.871l0,0C164.135,111.471,161.06,114.505,157.293,114.477z"/> <path fill="#69BD45" d="M66.659,137.674c2.683-2.647,12.436-6.902,14.544-4.76l0,0c2.11,2.136-2.279,11.827-4.965,14.474l0,0 c-2.68,2.646-7,2.615-9.649-0.067l0,0C63.946,144.637,63.976,140.317,66.659,137.674z"/> </g> </g> </g> </svg>
