<?xml version="1.0" encoding="utf-8"?>
<!-- Generator: Adobe Illustrator 16.0.4, SVG Export Plug-In . SVG Version: 6.00 Build 0)  -->
<!DOCTYPE svg PUBLIC "-//W3C//DTD SVG 1.1//EN" "http://www.w3.org/Graphics/SVG/1.1/DTD/svg11.dtd">
<svg version="1.1" xmlns="http://www.w3.org/2000/svg" xmlns:xlink="http://www.w3.org/1999/xlink" x="0px" y="0px"
	 width="213.626px" height="213.625px" viewBox="0 0 213.626 213.625" enable-background="new 0 0 213.626 213.625"
	 xml:space="preserve">
<g id="Layer_2">
	<g id="Standard">
		<g id="Couleur2" display="none">
			<path class="couleur1"  display="inline"  d="M94.071,200.834c-0.008-7.072,7.144-25.706,12.784-25.706l0,0
				c5.634-0.007,12.808,18.617,12.808,25.689l0,0c0.009,7.064-5.72,12.8-12.792,12.808l0,0
				C99.808,213.625,94.071,207.898,94.071,200.834z"/>
			<path class="couleur1"  display="inline"  d="M164.621,182.642c-5.006-4.995-13.126-23.229-9.138-27.217l0,0
				c3.979-3.988,22.221,4.107,27.223,9.108l0,0c5,4.989,5.006,13.096,0.011,18.102l0,0
				C177.722,187.63,169.616,187.636,164.621,182.642z"/>
			<path class="couleur1"  display="inline"  d="M200.836,119.554c-7.072,0.008-25.708-7.144-25.706-12.783l0,0
				c-0.008-5.634,18.617-12.808,25.688-12.809l0,0c7.064-0.008,12.8,5.72,12.808,12.792l0,0
				C213.626,113.819,207.899,119.553,200.836,119.554z"/>
			<path class="couleur1"  display="inline"  d="M182.643,49.005c-4.994,5.006-23.229,13.127-27.216,9.138l0,0
				c-3.989-3.978,4.107-22.221,9.107-27.222l0,0c4.989-5,13.096-5.007,18.102-0.011l0,0
				C187.632,35.904,187.638,44.009,182.643,49.005z"/>
			<path class="couleur1"  display="inline"  d="M119.554,12.791c0.01,7.071-7.144,25.708-12.783,25.706l0,0
				c-5.633,0.008-12.807-18.617-12.808-25.689l0,0C93.955,5.744,99.682,0.007,106.754,0l0,0C113.819,0,119.554,5.726,119.554,12.791
				z"/>
			<path class="couleur1"  display="inline"  d="M49.004,30.984c5.007,4.994,13.127,23.229,9.138,27.216l0,0
				c-3.978,3.988-22.22-4.108-27.222-9.108l0,0c-5-4.989-5.007-13.095-0.011-18.101l0,0C35.905,25.994,44.009,25.989,49.004,30.984z
				"/>
			<path class="couleur1"  display="inline"  d="M12.791,94.072c7.072-0.009,25.708,7.144,25.707,12.783l0,0
				c0.008,5.633-18.617,12.807-25.689,12.808l0,0c-7.064,0.008-12.8-5.719-12.808-12.792l0,0C0,99.807,5.726,94.072,12.791,94.072z"
				/>
			<path class="couleur1"  display="inline"  d="M30.984,164.622c4.994-5.006,23.229-13.126,27.215-9.138l0,0
				c3.989,3.979-4.108,22.22-9.108,27.223l0,0c-4.989,5-13.094,5.006-18.102,0.011l0,0
				C25.994,177.721,25.989,169.617,30.984,164.622z"/>
		</g>
		<g id="Couleur1">
			<path class="couleur1"   d="M58.575,188.898c2.699-6.537,16.437-21.017,21.648-18.858l0,0c5.207,2.149,4.709,22.102,2.003,28.636l0,0
				c-2.695,6.529-10.183,9.637-16.719,6.938l0,0C58.98,202.91,55.872,195.424,58.575,188.898z"/>
			<path class="couleur1"   d="M131.516,198.648c-2.715-6.53-3.24-26.484,1.972-28.642l0,0c5.201-2.163,18.957,12.298,21.665,18.832l0,0
				c2.71,6.522-0.387,14.014-6.917,16.728l0,0C141.709,208.269,134.219,205.174,131.516,198.648z"/>
			<path class="couleur1"   d="M188.898,155.051c-6.536-2.699-21.018-16.438-18.858-21.646l0,0c2.148-5.208,22.102-4.709,28.636-2.004
				l0,0c6.529,2.695,9.637,10.182,6.938,16.719l0,0C202.911,154.646,195.426,157.754,188.898,155.051z"/>
			<path class="couleur1"   d="M198.649,82.111c-6.53,2.714-26.485,3.239-28.642-1.972l0,0c-2.163-5.202,12.298-18.958,18.831-21.665
				l0,0c6.522-2.711,14.014,0.385,16.729,6.916l0,0C208.271,71.917,205.176,79.407,198.649,82.111z"/>
			<path class="couleur1"   d="M155.052,24.727c-2.697,6.537-16.438,21.018-21.647,18.858l0,0c-5.207-2.148-4.708-22.101-2.003-28.635
				l0,0c2.695-6.529,10.182-9.638,16.719-6.938l0,0C154.647,10.715,157.755,18.2,155.052,24.727z"/>
			<path class="couleur1"   d="M82.111,14.978c2.715,6.53,3.239,26.485-1.971,28.641l0,0c-5.202,2.163-18.958-12.297-21.665-18.832l0,0
				c-2.711-6.522,0.385-14.014,6.916-16.727l0,0C71.918,5.355,79.407,8.451,82.111,14.978z"/>
			<path class="couleur1"   d="M24.727,58.575c6.537,2.698,21.018,16.437,18.859,21.646l0,0c-2.148,5.208-22.101,4.708-28.635,2.004l0,0
				C8.421,79.53,5.313,72.044,8.012,65.506l0,0C10.716,58.979,18.2,55.872,24.727,58.575z"/>
			<path class="couleur1"   d="M14.978,131.515c6.529-2.714,26.484-3.238,28.641,1.972l0,0c2.164,5.202-12.297,18.957-18.831,21.666l0,0
				c-6.523,2.71-14.013-0.386-16.728-6.917l0,0C5.355,141.708,8.451,134.219,14.978,131.515z"/>
		</g>
	</g>
</g>
</svg>
