<svg version="1.1" xmlns="http://www.w3.org/2000/svg" xmlns:xlink="http://www.w3.org/1999/xlink" x="0px" y="0px"
	 viewBox="0 0 178.789 178.764" enable-background="new 0 0 178.789 178.764"
	 xml:space="preserve">
<g id="Layer_1">
</g>
<g id="Layer_2">
	<g id="Saturn">
		<g class="color1_4_">
			<path fill="#69BD45" d="M89.421,132.679c-3.574,0-8.107,11.81-8.102,16.291c0,4.477,3.635,8.107,8.113,8.107
				c4.481-0.006,8.112-3.641,8.106-8.117C97.539,144.478,92.992,132.674,89.421,132.679z"/>
			<path fill="#69BD45" d="M120.241,120.191c-2.528,2.526,2.619,14.083,5.791,17.249c3.166,3.165,8.303,3.161,11.469-0.005
				c3.166-3.172,3.162-8.31-0.007-11.472C134.323,122.794,122.762,117.663,120.241,120.191z"/>
			<path fill="#69BD45" d="M148.973,81.237c-4.481,0.001-16.286,4.547-16.281,8.118c-0.001,3.574,11.81,8.106,16.292,8.102
				c4.477-0.001,8.106-3.635,8.106-8.112C157.085,84.862,153.45,81.232,148.973,81.237z"/>
			<path fill="#69BD45" d="M125.977,41.283c-3.169,3.17-8.3,14.731-5.772,17.253c2.526,2.527,14.083-2.619,17.249-5.792
				c3.166-3.166,3.162-8.302-0.004-11.468C134.276,38.11,129.139,38.114,125.977,41.283z"/>
			<path fill="#69BD45" d="M89.368,46.085c3.574,0.001,8.108-11.811,8.102-16.292c0-4.478-3.634-8.106-8.111-8.106
				c-4.483,0.005-8.112,3.641-8.107,8.117C81.251,34.285,85.798,46.09,89.368,46.085z"/>
			<path fill="#69BD45" d="M58.548,58.572c2.528-2.526-2.618-14.084-5.791-17.248c-3.167-3.167-8.302-3.163-11.468,0.003
				c-3.166,3.173-3.162,8.311,0.007,11.473C44.466,55.969,56.028,61.1,58.548,58.572z"/>
			<path fill="#69BD45" d="M29.816,97.526c4.482-0.001,16.286-4.548,16.281-8.117c0.001-3.575-11.81-8.108-16.292-8.102
				c-4.477,0-8.106,3.634-8.106,8.111C21.704,93.901,25.339,97.531,29.816,97.526z"/>
			<path fill="#69BD45" d="M41.336,126.02c-3.166,3.166-3.163,8.302,0.003,11.469c3.174,3.165,8.311,3.162,11.473-0.007
				c3.169-3.171,8.3-14.731,5.772-17.253C56.059,117.7,44.501,122.847,41.336,126.02z"/>
			<path fill="#69BD45" d="M66.963,145.784c0.521-2.177,3.806-8.347,7.355-13.682c-0.406-1.347-0.986-2.323-1.776-2.649
				c-2.742-1.136-9.207,4.996-12.302,9.482c2.684-1.027,1.435,5.081-0.681,10.054c0.862,1.301,2.107,2.368,3.656,3.01
				c4.143,1.71,8.888-0.259,10.596-4.397c0.3-0.725,0.557-1.714,0.759-2.854C69.514,148.482,66.181,149.029,66.963,145.784z"/>
			<path fill="#69BD45" d="M106.3,129.432c-3.303,1.367-2.97,14.014-1.25,18.152c1.713,4.137,6.46,6.098,10.597,4.385
				c4.139-1.72,6.101-6.468,4.384-10.602C118.314,137.227,109.596,128.062,106.3,129.432z"/>
			<path fill="#69BD45" d="M147.615,104.965c-4.141-1.714-16.787-2.03-18.148,1.271c-1.369,3.301,7.81,12.008,11.952,13.719
				c4.137,1.713,8.881-0.257,10.594-4.394C153.722,111.418,151.753,106.673,147.615,104.965z"/>
			<path fill="#69BD45" d="M139.009,60.101c-4.49,3.073-10.71,9.62-9.563,12.376c0.33,0.796,1.318,1.379,2.681,1.784
				c5.348-3.565,11.553-6.878,13.741-7.406c3.253-0.788,2.709,2.548-1.038,7.619c1.104-0.201,2.062-0.453,2.768-0.747
				c4.136-1.714,6.098-6.461,4.384-10.597c-0.64-1.539-1.699-2.776-2.989-3.636C143.983,61.619,137.854,62.864,139.009,60.101z"/>
			<path fill="#69BD45" d="M72.49,49.331c3.302-1.367,2.97-14.014,1.249-18.152c-1.713-4.137-6.46-6.099-10.597-4.384
				c-4.139,1.719-6.101,6.468-4.383,10.602C60.475,41.537,69.193,50.702,72.49,49.331z"/>
			<path fill="#69BD45" d="M31.174,73.799c4.142,1.714,16.787,2.03,18.148-1.271c1.369-3.301-7.809-12.009-11.952-13.719
				c-4.137-1.713-8.88,0.256-10.594,4.393C25.067,67.347,27.036,72.091,31.174,73.799z"/>
			<path fill="#69BD45" d="M119.23,29.773c-0.862-1.301-2.107-2.367-3.657-3.009c-4.143-1.711-8.888,0.26-10.596,4.397
				c-0.3,0.725-0.556,1.713-0.758,2.853c-0.678,3.813-0.742,9.349,0.251,12.646c0.406,1.347,0.986,2.323,1.776,2.649
				c2.742,1.137,9.207-4.996,12.302-9.482c0.632-0.917,1.127-1.767,1.417-2.47C121.039,34.771,120.669,31.945,119.23,29.773z"/>
			<path fill="#69BD45" d="M49.343,106.287c-0.33-0.796-1.318-1.379-2.682-1.784c-3.327-0.988-8.898-0.907-12.702-0.213
				c-1.104,0.202-2.062,0.453-2.768,0.747c-4.136,1.714-6.099,6.461-4.384,10.598c0.64,1.539,1.699,2.775,2.988,3.635
				c2.178,1.453,5.017,1.827,7.614,0.749c0.678-0.281,1.491-0.752,2.37-1.354C44.269,115.591,50.49,109.044,49.343,106.287z"/>
		</g>
		<g class="color2_4_">
			<path fill="#ED1E25" d="M119.347,98.334c-1.463-1.463-11.179,0.544-15.782,5.15c-4.608,4.607-6.596,14.308-5.126,15.765
				c1.461,1.462,7.333-2.04,13.106-7.812C117.322,105.656,120.816,99.789,119.347,98.334z"/>
			<path fill="#ED1E25" d="M163.354,39.311c-5.123,3.053-21.704,16.283-24.129,20.36c-0.092,0.154-0.16,0.295-0.216,0.43
				c0.879-0.603,1.693-1.073,2.371-1.354c2.597-1.079,5.435-0.704,7.613,0.748c1.216-0.517,2.367-1.084,3.33-1.658
				c5.115-3.049,11.736-9.673,14.785-14.789C170.155,37.931,168.473,36.257,163.354,39.311z"/>
			<path fill="#ED1E25" d="M141.38,58.746c-0.678,0.281-1.492,0.752-2.371,1.354c-1.155,2.764,4.974,1.519,9.984-0.606
				C146.815,58.042,143.977,57.667,141.38,58.746z"/>
			<path fill="#ED1E25" d="M145.211,33.549c1.166,1.169,17.872-12.58,23.65-18.36c5.771-5.772,9.265-11.638,7.802-13.101
				c-1.47-1.457-7.341,2.044-13.113,7.819C157.773,15.686,144.038,32.389,145.211,33.549z"/>
			<path fill="#ED1E25" d="M119.967,37.357c-0.29,0.703-0.785,1.553-1.417,2.47c0.154-0.059,0.317-0.133,0.498-0.241
				c4.083-2.432,17.303-19.013,20.348-24.13c3.049-5.115,1.366-6.787-3.75-3.739c-5.125,3.057-11.748,9.683-14.79,14.795
				c-0.563,0.945-1.119,2.071-1.626,3.262C120.669,31.945,121.039,34.771,119.967,37.357z"/>
			<path fill="#ED1E25" d="M59.442,80.43c1.464,1.463,11.18-0.546,15.782-5.15c4.608-4.607,6.598-14.31,5.126-15.764
				c-1.462-1.462-7.333,2.038-13.105,7.811C61.466,73.107,57.974,78.974,59.442,80.43z"/>
			<path fill="#ED1E25" d="M15.436,139.452c5.122-3.053,21.704-16.284,24.128-20.359c0.091-0.153,0.159-0.294,0.215-0.428
				c-0.879,0.602-1.692,1.072-2.37,1.354c-2.597,1.078-5.436,0.704-7.614-0.749c-1.216,0.516-2.366,1.084-3.329,1.658
				c-5.117,3.05-11.737,9.672-14.786,14.787C8.634,140.833,10.318,142.505,15.436,139.452z"/>
			<path fill="#ED1E25" d="M33.58,145.215c-1.166-1.17-17.875,12.579-23.652,18.36c-5.772,5.772-9.265,11.638-7.802,13.101
				c1.47,1.457,7.341-2.045,13.113-7.819C21.016,163.077,34.751,146.374,33.58,145.215z"/>
			<path fill="#ED1E25" d="M58.823,141.405c0.29-0.703,0.786-1.553,1.418-2.47c-0.154,0.059-0.317,0.133-0.499,0.241
				c-4.083,2.433-17.304,19.014-20.348,24.13c-3.048,5.116-1.367,6.788,3.749,3.74c5.126-3.059,11.748-9.683,14.79-14.794
				c0.563-0.946,1.12-2.072,1.626-3.264C58.121,146.816,57.751,143.992,58.823,141.405z"/>
			<path fill="#ED1E25" d="M60.241,138.936c-0.632,0.917-1.128,1.767-1.418,2.47c-1.072,2.587-0.702,5.411,0.737,7.584
				C61.675,144.017,62.925,137.908,60.241,138.936z"/>
			<path fill="#ED1E25" d="M80.75,124.193c-1.826,1.479-4.182,4.526-6.432,7.909c0.994,3.297,0.93,8.831,0.252,12.645
				c0.492-0.362,0.994-0.745,1.516-1.168c5.9-4.782,11.375-11.543,12.226-15.097C89.171,124.919,85.45,120.384,80.75,124.193z"/>
			<path fill="#ED1E25" d="M74.318,132.103c-3.549,5.335-6.833,11.505-7.355,13.682c-0.782,3.245,2.55,2.698,7.607-1.037
				C75.248,140.934,75.312,135.399,74.318,132.103z"/>
			<path fill="#ED1E25" d="M132.127,74.261c-3.365,2.244-6.391,4.587-7.859,6.401c-3.812,4.704,0.747,8.404,4.316,7.538
				c3.56-0.858,10.32-6.339,15.094-12.231c0.417-0.515,0.794-1.01,1.153-1.495C141.026,75.168,135.454,75.249,132.127,74.261z"/>
			<path fill="#ED1E25" d="M145.868,66.854c-2.188,0.528-8.394,3.841-13.741,7.406c3.327,0.988,8.899,0.907,12.703,0.213
				C148.578,69.402,149.121,66.066,145.868,66.854z"/>
			<path fill="#ED1E25" d="M169.547,19.405c-5.899,4.779-22.307,20.98-22.984,23.813c-0.687,2.843,13.989-6.148,19.889-10.93
				c5.893-4.775,11.366-11.534,12.224-15.094C179.528,13.637,175.44,14.627,169.547,19.405z"/>
			<path fill="#ED1E25" d="M135.514,32.224c2.84-0.685,19.038-17.099,23.812-22.996c4.773-5.894,5.752-9.973,2.192-9.113
				c-3.57,0.867-10.332,6.348-15.101,12.238C141.64,18.251,132.67,32.914,135.514,32.224z"/>
			<path fill="#ED1E25" d="M98.04,54.569c1.825-1.479,4.181-4.526,6.431-7.909c-0.994-3.297-0.929-8.832-0.251-12.646
				c-0.492,0.363-0.994,0.746-1.516,1.169C96.803,39.967,91.33,46.728,90.478,50.28C89.619,53.843,93.34,58.38,98.04,54.569z"/>
			<path fill="#ED1E25" d="M46.661,104.503c3.366-2.243,6.392-4.588,7.861-6.402c3.811-4.704-0.747-8.404-4.317-7.537
				c-3.56,0.858-10.321,6.338-15.094,12.231c-0.417,0.515-0.794,1.01-1.153,1.495C37.763,103.596,43.334,103.515,46.661,104.503z"/>
			<path fill="#ED1E25" d="M32.226,135.545c0.687-2.843-13.989,6.146-19.889,10.93c-5.893,4.775-11.366,11.534-12.225,15.093
				c-0.852,3.559,3.236,2.568,9.129-2.209C15.141,154.578,31.549,138.378,32.226,135.545z"/>
			<path fill="#ED1E25" d="M43.275,146.54c-2.84,0.685-19.038,17.099-23.812,22.996c-4.772,5.893-5.753,9.973-2.192,9.113
				c3.57-0.867,10.331-6.348,15.101-12.238C37.149,160.512,46.12,145.849,43.275,146.54z"/>
		</g>
	</g>
</g>
</svg>
