<?xml version="1.0"?>
<svg xmlns="http://www.w3.org/2000/svg" xmlns:xlink="http://www.w3.org/1999/xlink" version="1.1" x="0px" y="0px" viewBox="0 0 152.377 140.949" enable-background="new 0 0 152.377 140.949" xml:space="preserve"> <g id="Layer_1"> </g> <g id="Layer_2"> <g id="Multi"> <g class="color1"> <path fill="#ED1C24" d="M44.154,39.115c-0.001-1.059,1.07-3.847,1.913-3.847l0,0c0.844-0.002,1.917,2.786,1.917,3.844l0,0 c0.001,1.059-0.856,1.917-1.915,1.918l0,0C45.013,41.03,44.154,40.173,44.154,39.115z"/> <path fill="#ED1C24" d="M54.714,36.393c-0.75-0.748-1.965-3.477-1.368-4.073l0,0c0.595-0.598,3.325,0.615,4.074,1.363l0,0 c0.749,0.746,0.749,1.96,0.001,2.709l0,0C56.674,37.14,55.461,37.141,54.714,36.393z"/> <path fill="#ED1C24" d="M60.134,26.95c-1.059,0.001-3.849-1.069-3.847-1.914l0,0c-0.001-0.843,2.786-1.916,3.844-1.916l0,0 c1.058-0.002,1.916,0.855,1.917,1.914l0,0C62.048,26.092,61.19,26.95,60.134,26.95z"/> <path fill="#ED1C24" d="M57.412,16.391c-0.749,0.749-3.477,1.965-4.074,1.368l0,0c-0.597-0.596,0.615-3.326,1.363-4.075l0,0 c0.746-0.747,1.96-0.749,2.709-0.001l0,0C58.157,14.43,58.159,15.643,57.412,16.391z"/> <path fill="#ED1C24" d="M47.968,10.971c0.002,1.058-1.068,3.848-1.913,3.848l0,0c-0.843,0.001-1.917-2.787-1.917-3.846l0,0 c-0.001-1.057,0.856-1.915,1.915-1.917l0,0C47.11,9.056,47.968,9.913,47.968,10.971z"/> <path fill="#ED1C24" d="M37.409,13.693c0.749,0.747,1.964,3.478,1.368,4.074l0,0c-0.596,0.597-3.327-0.616-4.076-1.363l0,0 c-0.747-0.747-0.749-1.961-0.001-2.71l0,0C35.447,12.947,36.661,12.945,37.409,13.693z"/> <path fill="#ED1C24" d="M31.988,23.136c1.059-0.001,3.849,1.069,3.849,1.914l0,0c0,0.843-2.787,1.916-3.845,1.917l0,0 c-1.057,0.001-1.917-0.856-1.918-1.915l0,0C30.073,23.994,30.931,23.136,31.988,23.136z"/> <path fill="#ED1C24" d="M34.712,33.695c0.747-0.749,3.477-1.964,4.074-1.367l0,0c0.597,0.596-0.616,3.326-1.363,4.074l0,0 c-0.747,0.748-1.96,0.749-2.71,0.002l0,0C33.964,35.656,33.963,34.443,34.712,33.695z"/> <path fill="#ED1C24" d="M38.841,37.329c0.404-0.979,2.46-3.146,3.24-2.822l0,0c0.78,0.322,0.705,3.309,0.299,4.286l0,0 c-0.402,0.977-1.524,1.442-2.501,1.038l0,0C38.902,39.427,38.437,38.307,38.841,37.329z"/> <path fill="#ED1C24" d="M49.759,38.788c-0.407-0.977-0.485-3.964,0.295-4.287l0,0c0.778-0.323,2.837,1.841,3.243,2.819l0,0 c0.405,0.977-0.058,2.097-1.035,2.503l0,0C51.284,40.229,50.163,39.766,49.759,38.788z"/> <path fill="#ED1C24" d="M58.347,32.263c-0.979-0.403-3.145-2.459-2.823-3.239l0,0c0.322-0.779,3.308-0.705,4.287-0.3l0,0 c0.977,0.402,1.441,1.523,1.037,2.502l0,0C60.444,32.202,59.324,32.668,58.347,32.263z"/> <path fill="#ED1C24" d="M59.806,21.346c-0.977,0.406-3.963,0.485-4.286-0.295l0,0c-0.325-0.778,1.839-2.837,2.818-3.243l0,0 c0.976-0.405,2.097,0.059,2.504,1.036l0,0C61.247,19.819,60.784,20.941,59.806,21.346z"/> <path fill="#ED1C24" d="M53.281,12.757c-0.404,0.979-2.46,3.146-3.241,2.822l0,0c-0.778-0.321-0.705-3.307-0.299-4.285l0,0 c0.404-0.977,1.524-1.443,2.502-1.039l0,0C53.221,10.659,53.685,11.78,53.281,12.757z"/> <path fill="#ED1C24" d="M42.364,11.298c0.405,0.977,0.485,3.964-0.296,4.287l0,0c-0.778,0.323-2.837-1.841-3.242-2.818l0,0 c-0.406-0.977,0.057-2.098,1.036-2.504l0,0C40.839,9.857,41.959,10.321,42.364,11.298z"/> <path fill="#ED1C24" d="M33.774,17.823c0.979,0.404,3.146,2.46,2.823,3.239l0,0c-0.322,0.78-3.308,0.705-4.285,0.301l0,0 c-0.978-0.403-1.443-1.524-1.039-2.503l0,0C31.678,17.884,32.797,17.419,33.774,17.823z"/> <path fill="#ED1C24" d="M32.315,28.74c0.977-0.406,3.964-0.484,4.288,0.295l0,0c0.323,0.779-1.841,2.837-2.82,3.243l0,0 c-0.976,0.406-2.097-0.059-2.502-1.035l0,0C30.875,30.267,31.339,29.146,32.315,28.74z"/> <path fill="#ED1C24" d="M100.186,45.102c-0.002-1.588,1.606-5.772,2.871-5.772l0,0c1.267-0.002,2.877,4.181,2.877,5.769l0,0 c0.002,1.587-1.285,2.875-2.873,2.876l0,0C101.475,47.974,100.186,46.688,100.186,45.102z"/> <path fill="#ED1C24" d="M116.031,41.017c-1.125-1.122-2.948-5.217-2.052-6.112l0,0c0.894-0.896,4.989,0.922,6.112,2.046l0,0 c1.124,1.12,1.124,2.941,0.002,4.064l0,0C118.972,42.137,117.152,42.138,116.031,41.017z"/> <path fill="#ED1C24" d="M124.162,26.848c-1.588,0.003-5.774-1.603-5.772-2.87l0,0c-0.002-1.265,4.18-2.876,5.768-2.876l0,0 c1.588-0.002,2.875,1.284,2.877,2.873l0,0C127.035,25.561,125.748,26.848,124.162,26.848z"/> <path fill="#ED1C24" d="M120.078,11.005c-1.124,1.125-5.217,2.948-6.112,2.053l0,0c-0.896-0.894,0.922-4.99,2.045-6.113l0,0 c1.119-1.123,2.941-1.125,4.065-0.003l0,0C121.197,8.063,121.199,9.883,120.078,11.005z"/> <path fill="#ED1C24" d="M105.909,2.873c0.002,1.588-1.604,5.772-2.871,5.772l0,0c-1.265,0.001-2.877-4.181-2.877-5.77l0,0 c-0.002-1.586,1.285-2.874,2.873-2.876l0,0C104.622,0,105.909,1.286,105.909,2.873z"/> <path fill="#ED1C24" d="M90.066,6.958c1.123,1.121,2.948,5.217,2.052,6.113l0,0c-0.894,0.896-4.991-0.924-6.115-2.046l0,0 c-1.121-1.121-1.124-2.941-0.002-4.065l0,0C87.123,5.838,88.943,5.836,90.066,6.958z"/> <path fill="#ED1C24" d="M81.933,21.126c1.588-0.002,5.774,1.604,5.774,2.871l0,0c0,1.266-4.182,2.875-5.77,2.876l0,0 c-1.585,0.001-2.875-1.284-2.877-2.872l0,0C79.06,22.414,80.347,21.126,81.933,21.126z"/> <path fill="#ED1C24" d="M86.02,36.97c1.121-1.125,5.216-2.948,6.112-2.053l0,0c0.896,0.894-0.924,4.99-2.046,6.114l0,0 c-1.121,1.122-2.941,1.123-4.066,0.002l0,0C84.898,39.911,84.896,38.091,86.02,36.97z"/> <path fill="#ED1C24" d="M92.216,42.421c0.606-1.469,3.691-4.719,4.861-4.234l0,0c1.17,0.482,1.057,4.963,0.449,6.431l0,0 c-0.604,1.466-2.287,2.163-3.753,1.558l0,0C92.307,45.567,91.607,43.887,92.216,42.421z"/> <path fill="#ED1C24" d="M108.596,44.61c-0.61-1.467-0.728-5.947,0.442-6.432l0,0c1.167-0.486,4.257,2.762,4.865,4.229l0,0 c0.608,1.466-0.086,3.147-1.552,3.757l0,0C110.885,46.771,109.202,46.076,108.596,44.61z"/> <path fill="#ED1C24" d="M121.482,34.82c-1.468-0.606-4.719-3.69-4.235-4.86l0,0c0.482-1.17,4.962-1.059,6.431-0.45l0,0 c1.466,0.604,2.163,2.285,1.557,3.754l0,0C124.629,34.729,122.948,35.427,121.482,34.82z"/> <path fill="#ED1C24" d="M123.671,18.44c-1.466,0.609-5.947,0.728-6.431-0.443l0,0c-0.486-1.168,2.76-4.258,4.229-4.865l0,0 c1.464-0.608,3.147,0.087,3.757,1.553l0,0C125.832,16.15,125.137,17.833,123.671,18.44z"/> <path fill="#ED1C24" d="M113.881,5.553c-0.606,1.469-3.691,4.721-4.863,4.235l0,0c-1.167-0.482-1.057-4.963-0.449-6.43l0,0 c0.606-1.467,2.287-2.165,3.755-1.56l0,0C113.791,2.406,114.487,4.088,113.881,5.553z"/> <path fill="#ED1C24" d="M97.501,3.363c0.608,1.467,0.728,5.948-0.444,6.433l0,0c-1.167,0.485-4.257-2.763-4.865-4.229l0,0 c-0.608-1.465,0.086-3.148,1.555-3.758l0,0C95.212,1.203,96.893,1.898,97.501,3.363z"/> <path fill="#ED1C24" d="M84.613,13.155c1.468,0.605,4.722,3.69,4.235,4.86l0,0c-0.482,1.17-4.962,1.057-6.429,0.45l0,0 c-1.466-0.605-2.165-2.287-1.559-3.755l0,0C81.468,13.245,83.146,12.548,84.613,13.155z"/> <path fill="#ED1C24" d="M82.423,29.535c1.466-0.609,5.949-0.728,6.433,0.442l0,0c0.484,1.168-2.762,4.257-4.23,4.866l0,0 c-1.464,0.608-3.147-0.088-3.755-1.554l0,0C80.263,31.823,80.959,30.142,82.423,29.535z"/> <line fill="#ED1C24" x1="148.61" y1="74.202" x2="148.61" y2="74.202"/> <g class="color2"> <circle fill="#ED1C24" cx="145.151" cy="65.656" r="0.2"/> <circle fill="#ED1C24" cx="139.684" cy="59.662" r="0.635"/> <circle fill="#ED1C24" cx="133.136" cy="55.071" r="0.979"/> <circle fill="#ED1C24" cx="125.941" cy="51.751" r="1.255"/> <circle fill="#ED1C24" cx="118.402" cy="49.458" r="1.482"/> <circle fill="#ED1C24" cx="110.694" cy="47.953" r="1.671"/> <circle fill="#ED1C24" cx="102.904" cy="47.076" r="1.796"/> <circle fill="#ED1C24" cx="95.081" cy="46.633" r="1.908"/> <circle fill="#ED1C24" cx="87.253" cy="46.553" r="1.955"/> <circle fill="#ED1C24" cx="79.427" cy="46.655" r="1.999"/> <circle fill="#ED1C24" cx="71.604" cy="46.855" r="1.953"/> <circle fill="#ED1C24" cx="63.783" cy="47.165" r="1.906"/> <circle fill="#ED1C24" cx="55.979" cy="47.828" r="1.792"/> <circle fill="#ED1C24" cx="48.219" cy="48.95" r="1.665"/> <circle fill="#ED1C24" cx="40.564" cy="50.762" r="1.478"/> <circle fill="#ED1C24" cx="33.16" cy="53.489" r="1.251"/> <circle fill="#ED1C24" cx="26.275" cy="57.451" r="0.975"/> <circle fill="#ED1C24" cx="20.427" cy="62.94" r="0.633"/> <circle fill="#ED1C24" cx="16.259" cy="69.946" r="0.2"/> </g> <line fill="#ED1C24" x1="14.978" y1="74.647" x2="14.978" y2="74.647"/> <line fill="#ED1C24" x1="130.019" y1="27.173" x2="130.019" y2="27.173"/> <g> <circle fill="#ED1C24" cx="124.729" cy="29.853" r="0.2"/> <circle fill="#ED1C24" cx="117.299" cy="32.134" r="0.684"/> <circle fill="#ED1C24" cx="109.766" cy="34.214" r="1.06"/> <circle fill="#ED1C24" cx="102.25" cy="36.421" r="1.352"/> <circle fill="#ED1C24" cx="94.887" cy="39.126" r="1.577"/> <circle fill="#ED1C24" cx="87.886" cy="42.661" r="1.752"/> <circle fill="#ED1C24" cx="81.495" cy="47.214" r="1.885"/> <circle fill="#ED1C24" cx="75.77" cy="52.636" r="1.949"/> <circle fill="#ED1C24" cx="70.435" cy="58.458" r="1.999"/> <circle fill="#ED1C24" cx="65.442" cy="64.627" r="1.946"/> <circle fill="#ED1C24" cx="60.745" cy="71.04" r="1.88"/> <circle fill="#ED1C24" cx="56.297" cy="77.694" r="1.748"/> <circle fill="#ED1C24" cx="52.051" cy="84.526" r="1.571"/> <circle fill="#ED1C24" cx="47.961" cy="91.504" r="1.347"/> <circle fill="#ED1C24" cx="43.981" cy="98.613" r="1.055"/> <circle fill="#ED1C24" cx="40.065" cy="105.842" r="0.681"/> <circle fill="#ED1C24" cx="36.16" cy="113.186" r="0.2"/> </g> <line fill="#ED1C24" x1="33.567" y1="117.838" x2="33.567" y2="117.838"/> <line fill="#ED1C24" x1="130.458" y1="117.503" x2="130.458" y2="117.503"/> <line fill="#ED1C24" x1="33.128" y1="27.372" x2="33.128" y2="27.372"/> <line fill="#ED1C24" x1="106.488" y1="17.299" x2="106.488" y2="17.299"/> <g> <circle fill="#ED1C24" cx="103.681" cy="22.188" r="0.2"/> <circle fill="#ED1C24" cx="98.78" cy="27.975" r="0.713"/> <circle fill="#ED1C24" cx="93.368" cy="33.453" r="1.102"/> <circle fill="#ED1C24" cx="87.997" cy="39.048" r="1.408"/> <circle fill="#ED1C24" cx="83.307" cy="45.275" r="1.633"/> <circle fill="#ED1C24" cx="79.763" cy="52.261" r="1.797"/> <circle fill="#ED1C24" cx="77.062" cy="59.658" r="1.917"/> <circle fill="#ED1C24" cx="74.579" cy="67.194" r="1.973"/> <circle fill="#ED1C24" cx="72.272" cy="74.817" r="1.971"/> <circle fill="#ED1C24" cx="70.113" cy="82.51" r="1.916"/> <circle fill="#ED1C24" cx="68.068" cy="90.303" r="1.792"/> <circle fill="#ED1C24" cx="66.106" cy="98.159" r="1.627"/> <circle fill="#ED1C24" cx="64.197" cy="106.087" r="1.403"/> <circle fill="#ED1C24" cx="62.31" cy="114.102" r="1.098"/> <circle fill="#ED1C24" cx="60.411" cy="122.196" r="0.71"/> <circle fill="#ED1C24" cx="58.469" cy="130.408" r="0.2"/> </g> <line fill="#ED1C24" x1="57.098" y1="135.726" x2="57.098" y2="135.726"/> <line fill="#ED1C24" x1="144.965" y1="96.438" x2="144.965" y2="96.438"/> <g> <circle fill="#ED1C24" cx="139.492" cy="87.692" r="0.2"/> <circle fill="#ED1C24" cx="134.233" cy="81.477" r="0.658"/> <circle fill="#ED1C24" cx="128.626" cy="75.694" r="1.017"/> <circle fill="#ED1C24" cx="122.72" cy="70.316" r="1.301"/> <circle fill="#ED1C24" cx="116.542" cy="65.324" r="1.527"/> <circle fill="#ED1C24" cx="110.118" cy="60.708" r="1.713"/> <circle fill="#ED1C24" cx="103.465" cy="56.503" r="1.838"/> <circle fill="#ED1C24" cx="96.598" cy="52.704" r="1.927"/> <circle fill="#ED1C24" cx="89.528" cy="49.342" r="1.977"/> <circle fill="#ED1C24" cx="82.27" cy="46.438" r="1.975"/> <circle fill="#ED1C24" cx="74.838" cy="44.036" r="1.925"/> <circle fill="#ED1C24" cx="67.255" cy="42.204" r="1.833"/> <circle fill="#ED1C24" cx="59.548" cy="40.993" r="1.709"/> <circle fill="#ED1C24" cx="51.76" cy="40.5" r="1.522"/> <circle fill="#ED1C24" cx="43.943" cy="40.773" r="1.296"/> <circle fill="#ED1C24" cx="36.177" cy="41.895" r="1.012"/> <circle fill="#ED1C24" cx="28.551" cy="43.932" r="0.656"/> <circle fill="#ED1C24" cx="21.169" cy="46.933" r="0.2"/> </g> <line fill="#ED1C24" x1="18.621" y1="48.207" x2="18.621" y2="48.207"/> <line fill="#ED1C24" x1="144.667" y1="47.421" x2="144.667" y2="47.421"/> <g> <circle fill="#ED1C24" cx="139.137" cy="45.321" r="0.2"/> <circle fill="#ED1C24" cx="131.447" cy="43.08" r="0.658"/> <circle fill="#ED1C24" cx="123.621" cy="41.674" r="1.017"/> <circle fill="#ED1C24" cx="115.73" cy="41.061" r="1.301"/> <circle fill="#ED1C24" cx="107.836" cy="41.191" r="1.527"/> <circle fill="#ED1C24" cx="99.996" cy="42.008" r="1.713"/> <circle fill="#ED1C24" cx="92.254" cy="43.49" r="1.838"/> <circle fill="#ED1C24" cx="84.649" cy="45.569" r="1.927"/> <circle fill="#ED1C24" cx="77.211" cy="48.207" r="1.977"/> <circle fill="#ED1C24" cx="69.963" cy="51.356" r="1.974"/> <circle fill="#ED1C24" cx="62.929" cy="54.98" r="1.925"/> <circle fill="#ED1C24" cx="56.128" cy="59.071" r="1.833"/> <circle fill="#ED1C24" cx="49.58" cy="63.595" r="1.709"/> <circle fill="#ED1C24" cx="43.307" cy="68.563" r="1.521"/> <circle fill="#ED1C24" cx="37.332" cy="73.938" r="1.296"/> <circle fill="#ED1C24" cx="31.683" cy="79.723" r="1.013"/> <circle fill="#ED1C24" cx="26.393" cy="85.926" r="0.656"/> <circle fill="#ED1C24" cx="21.503" cy="92.564" r="0.2"/> </g> <line fill="#ED1C24" x1="18.921" y1="97.028" x2="18.921" y2="97.028"/> <line fill="#ED1C24" x1="107.379" y1="135.286" x2="107.379" y2="135.286"/> <g> <circle fill="#ED1C24" cx="104.478" cy="124.409" r="0.2"/> <circle fill="#ED1C24" cx="102.579" cy="116.342" r="0.713"/> <circle fill="#ED1C24" cx="100.827" cy="108.365" r="1.102"/> <circle fill="#ED1C24" cx="99.133" cy="100.456" r="1.407"/> <circle fill="#ED1C24" cx="97.423" cy="92.632" r="1.633"/> <circle fill="#ED1C24" cx="95.628" cy="84.888" r="1.796"/> <circle fill="#ED1C24" cx="93.683" cy="77.224" r="1.917"/> <circle fill="#ED1C24" cx="91.518" cy="69.683" r="1.973"/> <circle fill="#ED1C24" cx="89.056" cy="62.264" r="1.971"/> <circle fill="#ED1C24" cx="86.212" cy="55.01" r="1.916"/> <circle fill="#ED1C24" cx="82.886" cy="48.033" r="1.792"/> <circle fill="#ED1C24" cx="78.964" cy="41.411" r="1.627"/> <circle fill="#ED1C24" cx="73.936" cy="35.638" r="1.403"/> <circle fill="#ED1C24" cx="68.152" cy="30.66" r="1.098"/> <circle fill="#ED1C24" cx="62.432" cy="25.698" r="0.71"/> <circle fill="#ED1C24" cx="57.625" cy="20.042" r="0.2"/> </g> <line fill="#ED1C24" x1="56.205" y1="17.501" x2="56.205" y2="17.501"/> <path fill="#ED1C24" d="M133.363,92.956c-0.001-1.124,1.136-4.088,2.033-4.088l0,0c0.896-0.001,2.037,2.961,2.037,4.086l0,0 c0.002,1.123-0.91,2.035-2.034,2.036l0,0C134.275,94.99,133.363,94.079,133.363,92.956z"/> <path fill="#ED1C24" d="M144.583,90.063c-0.796-0.795-2.088-3.694-1.453-4.328l0,0c0.632-0.635,3.533,0.652,4.329,1.448l0,0 c0.796,0.794,0.796,2.083,0.002,2.879l0,0C146.667,90.856,145.378,90.857,144.583,90.063z"/> <path fill="#ED1C24" d="M150.343,80.029c-1.125,0.002-4.089-1.136-4.088-2.032l0,0c0-0.896,2.96-2.037,4.085-2.037l0,0 c1.124-0.001,2.036,0.909,2.038,2.035l0,0C152.377,79.118,151.465,80.029,150.343,80.029z"/> <path fill="#ED1C24" d="M147.449,68.81c-0.795,0.797-3.694,2.088-4.328,1.454l0,0c-0.635-0.633,0.653-3.534,1.448-4.329l0,0 c0.793-0.796,2.083-0.797,2.879-0.002l0,0C148.243,66.727,148.244,68.016,147.449,68.81z"/> <path fill="#ED1C24" d="M137.417,63.051c0.001,1.125-1.136,4.088-2.033,4.088l0,0c-0.896,0.001-2.037-2.96-2.037-4.086l0,0 c-0.002-1.123,0.91-2.035,2.034-2.036l0,0C136.504,61.017,137.417,61.927,137.417,63.051z"/> <path fill="#ED1C24" d="M126.196,65.944c0.796,0.794,2.088,3.694,1.453,4.328l0,0c-0.632,0.635-3.533-0.653-4.329-1.448l0,0 c-0.795-0.794-0.796-2.083-0.002-2.88l0,0C124.112,65.15,125.401,65.149,126.196,65.944z"/> <path fill="#ED1C24" d="M120.437,75.978c1.125-0.002,4.089,1.136,4.088,2.033l0,0c0,0.896-2.96,2.036-4.085,2.037l0,0 c-1.124,0.001-2.036-0.91-2.038-2.034l0,0C118.402,76.89,119.314,75.978,120.437,75.978z"/> <path fill="#ED1C24" d="M123.331,87.197c0.794-0.796,3.693-2.088,4.328-1.452l0,0c0.634,0.632-0.654,3.533-1.449,4.329l0,0 c-0.793,0.794-2.082,0.795-2.879,0.001l0,0C122.537,89.28,122.535,87.991,123.331,87.197z"/> <path fill="#ED1C24" d="M127.718,91.058c0.429-1.04,2.613-3.342,3.443-2.999l0,0c0.828,0.343,0.749,3.516,0.318,4.555l0,0 c-0.428,1.038-1.619,1.532-2.658,1.104l0,0C127.782,93.286,127.288,92.096,127.718,91.058z"/> <path fill="#ED1C24" d="M139.318,92.608c-0.432-1.038-0.516-4.212,0.314-4.556l0,0c0.827-0.343,3.015,1.957,3.445,2.995l0,0 c0.431,1.039-0.062,2.229-1.101,2.661l0,0C140.94,94.139,139.748,93.646,139.318,92.608z"/> <path fill="#ED1C24" d="M148.445,85.676c-1.04-0.43-3.343-2.614-2.999-3.443l0,0c0.341-0.827,3.514-0.749,4.553-0.317l0,0 c1.039,0.428,1.533,1.618,1.104,2.658l0,0C150.673,85.611,149.482,86.105,148.445,85.676z"/> <path fill="#ED1C24" d="M149.995,74.075c-1.039,0.432-4.212,0.516-4.555-0.313l0,0c-0.344-0.827,1.955-3.016,2.995-3.445l0,0 c1.037-0.431,2.229,0.062,2.66,1.1l0,0C151.525,72.454,151.033,73.646,149.995,74.075z"/> <path fill="#ED1C24" d="M143.061,64.949c-0.428,1.04-2.614,3.343-3.443,2.999l0,0c-0.828-0.342-0.749-3.515-0.318-4.554l0,0 c0.429-1.038,1.619-1.533,2.659-1.104l0,0C142.997,62.721,143.491,63.911,143.061,64.949z"/> <path fill="#ED1C24" d="M131.461,63.398c0.432,1.038,0.516,4.212-0.314,4.556l0,0c-0.827,0.344-3.015-1.957-3.445-2.995l0,0 c-0.431-1.037,0.061-2.229,1.1-2.66l0,0C129.84,61.868,131.031,62.361,131.461,63.398z"/> <path fill="#ED1C24" d="M122.334,70.332c1.04,0.43,3.343,2.614,2.999,3.442l0,0c-0.341,0.829-3.514,0.749-4.553,0.319l0,0 c-1.039-0.429-1.533-1.62-1.104-2.659l0,0C120.107,70.396,121.296,69.902,122.334,70.332z"/> <path fill="#ED1C24" d="M120.784,81.933c1.039-0.432,4.212-0.516,4.555,0.313l0,0c0.344,0.827-1.955,3.015-2.995,3.446l0,0 c-1.037,0.43-2.229-0.062-2.659-1.101l0,0C119.254,83.554,119.747,82.362,120.784,81.933z"/> <path fill="#ED1C24" d="M16.722,83.641c-0.001-1.257,1.27-4.569,2.272-4.569l0,0c1.002-0.001,2.277,3.31,2.277,4.566l0,0 c0.002,1.256-1.017,2.275-2.274,2.276l0,0C17.742,85.914,16.722,84.896,16.722,83.641z"/> <path fill="#ED1C24" d="M29.264,80.407c-0.89-0.888-2.334-4.129-1.625-4.838l0,0c0.707-0.709,3.95,0.729,4.839,1.619l0,0 c0.89,0.887,0.89,2.328,0.002,3.217l0,0C31.593,81.294,30.152,81.295,29.264,80.407z"/> <path fill="#ED1C24" d="M35.701,69.191c-1.257,0.003-4.57-1.269-4.569-2.271l0,0c-0.001-1.001,3.309-2.276,4.566-2.276l0,0 c1.256-0.002,2.276,1.017,2.277,2.274l0,0C37.975,68.174,36.956,69.191,35.701,69.191z"/> <path fill="#ED1C24" d="M32.467,56.652c-0.888,0.89-4.129,2.333-4.837,1.624l0,0c-0.71-0.707,0.73-3.95,1.618-4.839l0,0 c0.887-0.889,2.329-0.891,3.219-0.003l0,0C33.354,54.323,33.355,55.763,32.467,56.652z"/> <path fill="#ED1C24" d="M21.252,50.215c0.001,1.257-1.27,4.569-2.272,4.569l0,0c-1.001,0-2.277-3.31-2.277-4.567l0,0 c-0.002-1.255,1.017-2.274,2.274-2.276l0,0C20.232,47.94,21.252,48.958,21.252,50.215z"/> <path fill="#ED1C24" d="M8.711,53.449c0.89,0.887,2.334,4.129,1.625,4.838l0,0c-0.707,0.709-3.95-0.731-4.839-1.619l0,0 c-0.889-0.888-0.89-2.329-0.002-3.219l0,0C6.382,52.562,7.823,52.56,8.711,53.449z"/> <path fill="#ED1C24" d="M2.274,64.663c1.257-0.002,4.57,1.27,4.569,2.273l0,0c0.001,1.001-3.309,2.274-4.566,2.275l0,0 C1.021,69.214,0.001,68.195,0,66.938l0,0C0,65.683,1.019,64.663,2.274,64.663z"/> <path fill="#ED1C24" d="M5.509,77.204c0.887-0.89,4.128-2.333,4.837-1.624l0,0c0.709,0.707-0.731,3.95-1.619,4.839l0,0 C7.84,81.307,6.4,81.308,5.509,80.421l0,0C4.621,79.532,4.62,78.092,5.509,77.204z"/> <path fill="#ED1C24" d="M10.413,81.519c0.48-1.161,2.922-3.734,3.849-3.352l0,0c0.925,0.383,0.837,3.929,0.355,5.091l0,0 c-0.479,1.16-1.81,1.713-2.971,1.232l0,0C10.484,84.011,9.932,82.68,10.413,81.519z"/> <path fill="#ED1C24" d="M23.378,83.252c-0.482-1.16-0.576-4.708,0.351-5.091l0,0c0.924-0.385,3.37,2.186,3.851,3.348l0,0 c0.481,1.159-0.069,2.49-1.23,2.973l0,0C25.191,84.963,23.859,84.412,23.378,83.252z"/> <path fill="#ED1C24" d="M33.579,75.503c-1.162-0.479-3.736-2.922-3.352-3.848l0,0c0.382-0.926,3.928-0.838,5.089-0.356l0,0 c1.162,0.479,1.713,1.809,1.233,2.972l0,0C36.07,75.431,34.739,75.983,33.579,75.503z"/> <path fill="#ED1C24" d="M35.312,62.537c-1.161,0.482-4.708,0.576-5.091-0.351l0,0c-0.384-0.925,2.186-3.37,3.348-3.852l0,0 c1.159-0.481,2.491,0.068,2.973,1.229l0,0C37.022,60.725,36.473,62.056,35.312,62.537z"/> <path fill="#ED1C24" d="M27.562,52.336c-0.479,1.162-2.921,3.736-3.849,3.353l0,0c-0.925-0.382-0.836-3.929-0.355-5.09l0,0 c0.479-1.16,1.81-1.714,2.972-1.234l0,0C27.49,49.845,28.042,51.176,27.562,52.336z"/> <path fill="#ED1C24" d="M14.596,50.603c0.482,1.161,0.576,4.708-0.351,5.092l0,0c-0.924,0.384-3.369-2.187-3.851-3.347l0,0 c-0.481-1.16,0.068-2.492,1.23-2.975l0,0C12.784,48.893,14.116,49.443,14.596,50.603z"/> <path fill="#ED1C24" d="M4.396,58.354c1.162,0.479,3.736,2.921,3.352,3.848l0,0c-0.382,0.926-3.928,0.836-5.089,0.355l0,0 c-1.161-0.478-1.713-1.81-1.233-2.972l0,0C1.905,58.426,3.235,57.873,4.396,58.354z"/> <path fill="#ED1C24" d="M2.662,71.319c1.161-0.482,4.708-0.576,5.091,0.35l0,0c0.384,0.926-2.185,3.37-3.348,3.853l0,0 c-1.159,0.481-2.491-0.07-2.972-1.23l0,0C0.952,73.131,1.503,71.8,2.662,71.319z"/> <path fill="#ED1C24" d="M42.667,137.597c-0.003-1.853,1.87-6.733,3.349-6.733l0,0c1.476-0.004,3.357,4.878,3.357,6.73l0,0 c0.002,1.851-1.5,3.354-3.352,3.355l0,0C44.168,140.949,42.667,139.448,42.667,137.597z"/> <path fill="#ED1C24" d="M61.151,132.831c-1.311-1.31-3.439-6.087-2.395-7.132l0,0c1.043-1.045,5.824,1.077,7.135,2.388l0,0 c1.31,1.307,1.31,3.432,0.002,4.742l0,0C64.585,134.138,62.462,134.139,61.151,132.831z"/> <path fill="#ED1C24" d="M70.642,116.301c-1.853,0.002-6.737-1.871-6.737-3.351l0,0c0-1.476,4.879-3.355,6.731-3.355l0,0 c1.851-0.002,3.354,1.498,3.357,3.353l0,0C73.993,114.799,72.491,116.301,70.642,116.301z"/> <path fill="#ED1C24" d="M65.873,97.815c-1.308,1.312-6.086,3.439-7.129,2.395l0,0c-1.048-1.043,1.076-5.822,2.384-7.133l0,0 c1.308-1.31,3.432-1.312,4.745-0.002l0,0C67.181,94.383,67.184,96.507,65.873,97.815z"/> <path fill="#ED1C24" d="M49.344,88.327c0.002,1.853-1.873,6.734-3.349,6.734l0,0c-1.476,0.003-3.357-4.876-3.357-6.731l0,0 c-0.002-1.849,1.499-3.353,3.352-3.355l0,0C47.84,84.975,49.344,86.476,49.344,88.327z"/> <path fill="#ED1C24" d="M30.857,93.094c1.313,1.309,3.442,6.087,2.395,7.132l0,0c-1.042,1.045-5.821-1.078-7.132-2.387l0,0 c-1.311-1.309-1.311-3.433-0.002-4.744l0,0C27.426,91.787,29.549,91.785,30.857,93.094z"/> <path fill="#ED1C24" d="M21.37,109.623c1.853-0.002,6.737,1.872,6.734,3.352l0,0c0.003,1.476-4.876,3.354-6.729,3.355l0,0 c-1.853,0.001-3.354-1.499-3.357-3.353l0,0C18.018,111.126,19.52,109.623,21.37,109.623z"/> <path fill="#ED1C24" d="M26.138,128.109c1.308-1.312,6.084-3.438,7.129-2.394l0,0c1.045,1.042-1.076,5.822-2.387,7.132l0,0 c-1.305,1.31-3.429,1.312-4.742,0.003l0,0C24.83,131.541,24.827,129.417,26.138,128.109z"/> <path fill="#ED1C24" d="M33.365,134.47c0.707-1.713,4.307-5.506,5.674-4.94l0,0c1.362,0.563,1.233,5.791,0.523,7.503l0,0 c-0.707,1.71-2.668,2.524-4.381,1.817l0,0C33.471,138.142,32.658,136.181,33.365,134.47z"/> <path fill="#ED1C24" d="M52.477,137.024c-0.709-1.711-0.849-6.939,0.519-7.505l0,0c1.362-0.566,4.967,3.223,5.676,4.935l0,0 c0.71,1.71-0.103,3.672-1.814,4.383l0,0C55.149,139.546,53.187,138.735,52.477,137.024z"/> <path fill="#ED1C24" d="M67.514,125.602c-1.713-0.707-5.509-4.306-4.941-5.671l0,0c0.563-1.365,5.79-1.235,7.501-0.525l0,0 c1.713,0.705,2.526,2.666,1.819,4.38l0,0C71.186,125.495,69.223,126.31,67.514,125.602z"/> <path fill="#ED1C24" d="M70.068,106.49c-1.711,0.711-6.94,0.849-7.506-0.518l0,0c-0.565-1.362,3.223-4.967,4.936-5.677l0,0 c1.708-0.709,3.672,0.103,4.381,1.813l0,0C72.589,103.818,71.779,105.781,70.068,106.49z"/> <path fill="#ED1C24" d="M58.644,91.454c-0.705,1.713-4.306,5.507-5.671,4.94l0,0c-1.365-0.562-1.233-5.789-0.524-7.501l0,0 c0.707-1.711,2.668-2.526,4.381-1.819l0,0C58.538,87.782,59.353,89.744,58.644,91.454z"/> <path fill="#ED1C24" d="M39.532,88.899c0.712,1.711,0.849,6.939-0.516,7.505l0,0c-1.362,0.566-4.967-3.223-5.676-4.934l0,0 c-0.709-1.709,0.101-3.673,1.812-4.384l0,0C36.862,86.378,38.825,87.19,39.532,88.899z"/> <path fill="#ED1C24" d="M24.497,100.323c1.714,0.707,5.506,4.307,4.942,5.671l0,0c-0.563,1.365-5.791,1.234-7.504,0.525l0,0 c-1.71-0.705-2.523-2.667-1.816-4.381l0,0C20.826,100.43,22.787,99.615,24.497,100.323z"/> <path fill="#ED1C24" d="M21.943,119.435c1.71-0.711,6.938-0.849,7.503,0.517l0,0c0.568,1.364-3.22,4.967-4.933,5.678l0,0 c-1.708,0.71-3.672-0.102-4.382-1.813l0,0C19.422,122.105,20.232,120.144,21.943,119.435z"/> <path fill="#ED1C24" d="M98.712,131.464c-0.002-1.39,1.404-5.05,2.512-5.05l0,0c1.107-0.001,2.517,3.658,2.517,5.047l0,0 c0.002,1.389-1.124,2.516-2.513,2.517l0,0C99.84,133.978,98.712,132.853,98.712,131.464z"/> <path fill="#ED1C24" d="M112.575,127.891c-0.984-0.981-2.58-4.564-1.796-5.348l0,0c0.782-0.784,4.366,0.807,5.349,1.79l0,0 c0.983,0.979,0.983,2.572,0.002,3.556l0,0C115.149,128.871,113.557,128.872,112.575,127.891z"/> <path fill="#ED1C24" d="M119.69,115.494c-1.39,0.001-5.052-1.403-5.051-2.512l0,0c0-1.107,3.658-2.517,5.047-2.517l0,0 c1.388-0.001,2.515,1.123,2.517,2.514l0,0C122.204,114.368,121.078,115.494,119.69,115.494z"/> <path fill="#ED1C24" d="M116.116,101.633c-0.982,0.983-4.564,2.579-5.347,1.796l0,0c-0.785-0.782,0.806-4.366,1.789-5.35l0,0 c0.98-0.982,2.573-0.983,3.557-0.002l0,0C117.096,99.058,117.098,100.65,116.116,101.633z"/> <path fill="#ED1C24" d="M103.72,94.517c0.002,1.39-1.404,5.052-2.512,5.052l0,0c-1.107,0.001-2.517-3.658-2.517-5.048l0,0 c-0.002-1.388,1.124-2.515,2.513-2.517l0,0C102.593,92.004,103.72,93.129,103.72,94.517z"/> <path fill="#ED1C24" d="M89.857,98.092c0.984,0.98,2.581,4.564,1.796,5.348l0,0c-0.782,0.783-4.366-0.808-5.349-1.789l0,0 c-0.982-0.981-0.983-2.573-0.002-3.558l0,0C87.283,97.111,88.876,97.11,89.857,98.092z"/> <path fill="#ED1C24" d="M82.742,110.487c1.39-0.001,5.052,1.404,5.051,2.513l0,0c0,1.107-3.658,2.515-5.047,2.516l0,0 c-1.388,0.001-2.515-1.123-2.517-2.513l0,0C80.229,111.614,81.355,110.487,82.742,110.487z"/> <path fill="#ED1C24" d="M86.318,124.35c0.981-0.983,4.563-2.579,5.347-1.796l0,0c0.784,0.782-0.807,4.366-1.79,5.35l0,0 c-0.98,0.982-2.572,0.982-3.557,0.002l0,0C85.337,126.924,85.335,125.331,86.318,124.35z"/> <path fill="#ED1C24" d="M91.739,129.119c0.53-1.285,3.229-4.129,4.253-3.705l0,0c1.022,0.423,0.925,4.343,0.393,5.626l0,0 c-0.529,1.283-2,1.894-3.284,1.363l0,0C91.817,131.872,91.207,130.401,91.739,129.119z"/> <path fill="#ED1C24" d="M106.07,131.035c-0.533-1.283-0.637-5.204,0.388-5.628l0,0c1.021-0.425,3.724,2.417,4.256,3.7l0,0 c0.532,1.281-0.076,2.754-1.359,3.286l0,0C108.074,132.925,106.601,132.317,106.07,131.035z"/> <path fill="#ED1C24" d="M117.345,122.47c-1.285-0.531-4.13-3.23-3.705-4.254l0,0c0.422-1.023,4.342-0.925,5.625-0.394l0,0 c1.284,0.529,1.894,2,1.363,3.284l0,0C120.099,122.39,118.627,123,117.345,122.47z"/> <path fill="#ED1C24" d="M119.261,108.138c-1.283,0.532-5.204,0.636-5.627-0.388l0,0c-0.425-1.021,2.416-3.726,3.701-4.257l0,0 c1.281-0.532,2.753,0.076,3.286,1.358l0,0C121.151,106.135,120.543,107.606,119.261,108.138z"/> <path fill="#ED1C24" d="M110.694,96.862c-0.529,1.285-3.229,4.13-4.253,3.705l0,0c-1.022-0.422-0.925-4.342-0.393-5.625l0,0 c0.53-1.283,2-1.896,3.285-1.364l0,0C110.615,94.109,111.226,95.58,110.694,96.862z"/> <path fill="#ED1C24" d="M96.363,94.946c0.533,1.283,0.637,5.204-0.388,5.628l0,0c-1.021,0.425-3.725-2.417-4.256-3.699l0,0 c-0.532-1.281,0.075-2.755,1.359-3.288l0,0C94.36,93.057,95.832,93.665,96.363,94.946z"/> <path fill="#ED1C24" d="M85.087,103.513c1.285,0.531,4.13,3.23,3.705,4.254l0,0c-0.422,1.023-4.342,0.924-5.625,0.394l0,0 c-1.283-0.529-1.894-2.001-1.363-3.286l0,0C82.335,103.593,83.804,102.982,85.087,103.513z"/> <path fill="#ED1C24" d="M83.172,117.845c1.283-0.533,5.204-0.636,5.627,0.388l0,0c0.425,1.021-2.416,3.725-3.701,4.257l0,0 c-1.281,0.532-2.753-0.076-3.285-1.359l0,0C81.281,119.847,81.89,118.376,83.172,117.845z"/> <path fill="#ED1C24" d="M101.498,35.419c-0.001-0.86,0.87-3.126,1.554-3.126l0,0c0.686-0.001,1.558,2.264,1.558,3.124l0,0 c0.001,0.858-0.696,1.557-1.555,1.557l0,0C102.196,36.974,101.498,36.277,101.498,35.419z"/> <path fill="#ED1C24" d="M110.077,33.207c-0.609-0.607-1.596-2.824-1.111-3.31l0,0c0.483-0.484,2.701,0.499,3.309,1.107l0,0 c0.608,0.607,0.608,1.593,0.001,2.201l0,0C111.669,33.813,110.684,33.813,110.077,33.207z"/> <path fill="#ED1C24" d="M114.479,25.536c-0.859,0.001-3.126-0.868-3.125-1.555l0,0c-0.001-0.685,2.263-1.557,3.123-1.557l0,0 c0.859-0.001,1.556,0.695,1.558,1.556l0,0C116.035,24.839,115.337,25.536,114.479,25.536z"/> <path fill="#ED1C24" d="M112.268,16.958c-0.608,0.609-2.824,1.597-3.309,1.111l0,0c-0.485-0.483,0.499-2.701,1.107-3.31l0,0 c0.606-0.608,1.593-0.609,2.201-0.002l0,0C112.874,15.366,112.875,16.351,112.268,16.958z"/> <path fill="#ED1C24" d="M104.597,12.556c0.001,0.859-0.868,3.125-1.554,3.125l0,0c-0.685,0.001-1.558-2.264-1.558-3.123l0,0 c-0.001-0.859,0.696-1.557,1.555-1.558l0,0C103.9,11,104.597,11.696,104.597,12.556z"/> <path fill="#ED1C24" d="M96.019,14.768c0.608,0.606,1.596,2.824,1.111,3.31l0,0c-0.484,0.484-2.702-0.5-3.311-1.107l0,0 c-0.607-0.607-0.608-1.593-0.001-2.201l0,0C94.426,14.161,95.411,14.159,96.019,14.768z"/> <path fill="#ED1C24" d="M91.616,22.438c0.859-0.001,3.126,0.869,3.126,1.555l0,0c0,0.686-2.264,1.557-3.124,1.558l0,0 c-0.858,0-1.556-0.695-1.558-1.556l0,0C90.06,23.136,90.757,22.438,91.616,22.438z"/> <path fill="#ED1C24" d="M93.828,31.016c0.607-0.608,2.824-1.596,3.31-1.111l0,0c0.485,0.484-0.5,2.702-1.108,3.311l0,0 c-0.607,0.607-1.592,0.608-2.202,0.001l0,0C93.221,32.608,93.22,31.623,93.828,31.016z"/> <path fill="#ED1C24" d="M97.183,33.968c0.328-0.796,1.998-2.556,2.632-2.293l0,0c0.633,0.261,0.572,2.687,0.243,3.481l0,0 C99.731,35.95,98.82,36.327,98.026,36l0,0C97.232,35.671,96.854,34.761,97.183,33.968z"/> <path fill="#ED1C24" d="M106.051,35.152c-0.331-0.794-0.394-3.22,0.24-3.481l0,0c0.632-0.264,2.305,1.495,2.634,2.289l0,0 c0.329,0.794-0.047,1.704-0.84,2.034l0,0C107.291,36.322,106.379,35.946,106.051,35.152z"/> <path fill="#ED1C24" d="M113.028,29.853c-0.795-0.328-2.555-1.998-2.293-2.632l0,0c0.261-0.634,2.687-0.573,3.481-0.243l0,0 c0.794,0.327,1.171,1.236,0.843,2.032l0,0C114.732,29.803,113.822,30.181,113.028,29.853z"/> <path fill="#ED1C24" d="M114.213,20.984c-0.794,0.329-3.22,0.394-3.482-0.24l0,0c-0.263-0.633,1.495-2.306,2.29-2.635l0,0 c0.792-0.329,1.704,0.048,2.034,0.841l0,0C115.383,19.744,115.007,20.655,114.213,20.984z"/> <path fill="#ED1C24" d="M108.913,14.007c-0.328,0.795-1.999,2.556-2.633,2.293l0,0c-0.632-0.262-0.572-2.688-0.243-3.481l0,0 c0.328-0.794,1.238-1.172,2.033-0.845l0,0C108.864,12.303,109.241,13.213,108.913,14.007z"/> <path fill="#ED1C24" d="M100.044,12.821c0.33,0.794,0.394,3.22-0.241,3.482l0,0c-0.632,0.263-2.305-1.496-2.634-2.289l0,0 c-0.329-0.793,0.047-1.705,0.842-2.035l0,0C98.805,11.651,99.715,12.028,100.044,12.821z"/> <path fill="#ED1C24" d="M93.066,18.122c0.795,0.328,2.557,1.998,2.293,2.632l0,0c-0.261,0.634-2.687,0.572-3.48,0.244l0,0 c-0.793-0.328-1.172-1.238-0.844-2.033l0,0C91.364,18.171,92.273,17.794,93.066,18.122z"/> <path fill="#ED1C24" d="M91.881,26.991c0.794-0.33,3.221-0.395,3.483,0.239l0,0c0.262,0.632-1.495,2.305-2.291,2.635l0,0 c-0.792,0.329-1.704-0.048-2.033-0.842l0,0C90.711,28.229,91.089,27.319,91.881,26.991z"/> <g> <circle fill="#ED1C24" cx="125.131" cy="108.108" r="0.2"/> <circle fill="#ED1C24" cx="121.192" cy="100.925" r="0.684"/> <circle fill="#ED1C24" cx="117.258" cy="93.848" r="1.06"/> <circle fill="#ED1C24" cx="113.264" cy="86.889" r="1.352"/> <circle fill="#ED1C24" cx="109.156" cy="80.067" r="1.577"/> <circle fill="#ED1C24" cx="104.881" cy="73.4" r="1.752"/> <circle fill="#ED1C24" cx="100.384" cy="66.927" r="1.885"/> <circle fill="#ED1C24" cx="95.609" cy="60.728" r="1.949"/> <circle fill="#ED1C24" cx="90.497" cy="54.818" r="1.999"/> <circle fill="#ED1C24" cx="84.989" cy="49.331" r="1.946"/> <circle fill="#ED1C24" cx="79.024" cy="44.359" r="1.88"/> <circle fill="#ED1C24" cx="72.399" cy="40.372" r="1.748"/> <circle fill="#ED1C24" cx="65.264" cy="37.398" r="1.571"/> <circle fill="#ED1C24" cx="57.874" cy="35.125" r="1.346"/> <circle fill="#ED1C24" cx="50.402" cy="33.178" r="1.055"/> <circle fill="#ED1C24" cx="42.974" cy="31.169" r="0.681"/> <circle fill="#ED1C24" cx="35.74" cy="28.74" r="0.2"/> </g> </g> </g> </g> </svg>
