<svg version="1.1" xmlns="http://www.w3.org/2000/svg" xmlns:xlink="http://www.w3.org/1999/xlink" x="0px" y="0px" viewBox="0 0 194.215 172.117" enable-background="new 0 0 194.215 172.117" xml:space="preserve"> <g id="Layer_1"> </g> <g id="Layer_2"> <g id="Palm-Tree_1_"> <g class="color1"> <line fill="none" x1="194.215" y1="82.702" x2="194.215" y2="82.702"/> <g> <circle fill="#ED1C24" cx="189.188" cy="70.282" r="0.55"/> <circle fill="#ED1C24" cx="183.888" cy="63.663" r="1.437"/> <circle fill="#ED1C24" cx="177.734" cy="58.093" r="2.184"/> <circle fill="#ED1C24" cx="170.953" cy="53.542" r="2.821"/> <circle fill="#ED1C24" cx="163.746" cy="49.87" r="3.375"/> <circle fill="#ED1C24" cx="156.262" cy="46.989" r="3.838"/> <circle fill="#ED1C24" cx="148.605" cy="44.778" r="4.234"/> <circle fill="#ED1C24" cx="140.847" cy="43.129" r="4.568"/> <circle fill="#ED1C24" cx="133.027" cy="41.946" r="4.847"/> <circle fill="#ED1C24" cx="125.173" cy="41.149" r="5.075"/> <circle fill="#ED1C24" cx="117.3" cy="40.667" r="5.258"/> <circle fill="#ED1C24" cx="109.425" cy="40.467" r="5.376"/> <circle fill="#ED1C24" cx="101.549" cy="40.463" r="5.454"/> <circle fill="#ED1C24" cx="93.67" cy="40.591" r="5.498"/> <circle fill="#ED1C24" cx="85.801" cy="40.784" r="5.45"/> <circle fill="#ED1C24" cx="77.928" cy="41.044" r="5.367"/> <circle fill="#ED1C24" cx="70.059" cy="41.471" r="5.248"/> <circle fill="#ED1C24" cx="62.204" cy="42.171" r="5.063"/> <circle fill="#ED1C24" cx="54.373" cy="43.2" r="4.833"/> <circle fill="#ED1C24" cx="46.587" cy="44.643" r="4.554"/> <circle fill="#ED1C24" cx="38.883" cy="46.602" r="4.22"/> <circle fill="#ED1C24" cx="31.327" cy="49.199" r="3.824"/> <circle fill="#ED1C24" cx="24.024" cy="52.583" r="3.362"/> <circle fill="#ED1C24" cx="17.146" cy="56.919" r="2.809"/> <circle fill="#ED1C24" cx="10.949" cy="62.315" r="2.176"/> <circle fill="#ED1C24" cx="5.758" cy="68.883" r="1.432"/> <circle fill="#ED1C24" cx="1.863" cy="76.516" r="0.55"/> </g> <line fill="none" x1="0" y1="83.346" x2="0" y2="83.346"/> </g> <g> <line fill="none" x1="167.196" y1="14.351" x2="167.196" y2="14.351"/> <g> <circle fill="#ED1C24" cx="159.507" cy="18.244" r="0.55"/> <circle fill="#ED1C24" cx="152.021" cy="20.19" r="1.537"/> <circle fill="#ED1C24" cx="144.435" cy="22.023" r="2.35"/> <circle fill="#ED1C24" cx="136.809" cy="23.827" r="3.062"/> <circle fill="#ED1C24" cx="129.201" cy="25.776" r="3.623"/> <circle fill="#ED1C24" cx="121.675" cy="28.053" r="4.1"/> <circle fill="#ED1C24" cx="114.319" cy="30.84" r="4.5"/> <circle fill="#ED1C24" cx="107.247" cy="34.289" r="4.825"/> <circle fill="#ED1C24" cx="100.586" cy="38.486" r="5.083"/> <circle fill="#ED1C24" cx="94.441" cy="43.445" r="5.279"/> <circle fill="#ED1C24" cx="88.706" cy="48.923" r="5.412"/> <circle fill="#ED1C24" cx="83.241" cy="54.737" r="5.475"/> <circle fill="#ED1C24" cx="78.027" cy="60.81" r="5.471"/> <circle fill="#ED1C24" cx="73.042" cy="67.106" r="5.403"/> <circle fill="#ED1C24" cx="68.264" cy="73.626" r="5.271"/> <circle fill="#ED1C24" cx="63.669" cy="80.346" r="5.072"/> <circle fill="#ED1C24" cx="59.235" cy="87.237" r="4.812"/> <circle fill="#ED1C24" cx="54.938" cy="94.284" r="4.485"/> <circle fill="#ED1C24" cx="50.758" cy="101.475" r="4.086"/> <circle fill="#ED1C24" cx="46.671" cy="108.801" r="3.61"/> <circle fill="#ED1C24" cx="42.653" cy="116.251" r="3.05"/> <circle fill="#ED1C24" cx="38.685" cy="123.82" r="2.341"/> <circle fill="#ED1C24" cx="34.738" cy="131.5" r="1.531"/> <circle fill="#ED1C24" cx="30.785" cy="139.358" r="0.55"/> </g> <line fill="none" x1="27.018" y1="146.119" x2="27.018" y2="146.119"/> </g> <g> <line fill="none" x1="167.835" y1="145.631" x2="167.835" y2="145.631"/> <g> <circle fill="#ED1C24" cx="160.091" cy="131.979" r="0.55"/> <circle fill="#ED1C24" cx="156.104" cy="124.291" r="1.536"/> <circle fill="#ED1C24" cx="152.136" cy="116.768" r="2.35"/> <circle fill="#ED1C24" cx="148.15" cy="109.35" r="3.062"/> <circle fill="#ED1C24" cx="144.119" cy="102.051" r="3.623"/> <circle fill="#ED1C24" cx="140.017" cy="94.879" r="4.101"/> <circle fill="#ED1C24" cx="135.815" cy="87.847" r="4.499"/> <circle fill="#ED1C24" cx="131.49" cy="80.967" r="4.825"/> <circle fill="#ED1C24" cx="127.014" cy="74.257" r="5.083"/> <circle fill="#ED1C24" cx="122.359" cy="67.734" r="5.279"/> <circle fill="#ED1C24" cx="117.499" cy="61.431" r="5.412"/> <circle fill="#ED1C24" cx="112.404" cy="55.389" r="5.475"/> <circle fill="#ED1C24" cx="107.045" cy="49.613" r="5.471"/> <circle fill="#ED1C24" cx="101.394" cy="44.158" r="5.403"/> <circle fill="#ED1C24" cx="95.419" cy="39.112" r="5.271"/> <circle fill="#ED1C24" cx="89.017" cy="34.69" r="5.072"/> <circle fill="#ED1C24" cx="82.137" cy="31.083" r="4.812"/> <circle fill="#ED1C24" cx="74.925" cy="28.205" r="4.485"/> <circle fill="#ED1C24" cx="67.51" cy="25.906" r="4.087"/> <circle fill="#ED1C24" cx="59.988" cy="24.004" r="3.61"/> <circle fill="#ED1C24" cx="52.431" cy="22.305" r="3.05"/> <circle fill="#ED1C24" cx="44.896" cy="20.62" r="2.341"/> <circle fill="#ED1C24" cx="37.449" cy="18.762" r="1.531"/> <circle fill="#ED1C24" cx="30.175" cy="16.627" r="0.55"/> </g> <line fill="none" x1="26.38" y1="14.641" x2="26.38" y2="14.641"/> </g> <g> <line fill="none" x1="132.996" y1="0" x2="132.996" y2="0"/> <g> <circle fill="#ED1C24" cx="128.918" cy="7.107" r="0.55"/> <circle fill="#ED1C24" cx="124.171" cy="12.484" r="1.576"/> <circle fill="#ED1C24" cx="118.982" cy="17.688" r="2.415"/> <circle fill="#ED1C24" cx="113.564" cy="22.784" r="3.141"/> <circle fill="#ED1C24" cx="108.191" cy="28.017" r="3.716"/> <circle fill="#ED1C24" cx="103.164" cy="33.643" r="4.2"/> <circle fill="#ED1C24" cx="98.764" cy="39.823" r="4.598"/> <circle fill="#ED1C24" cx="95.167" cy="46.56" r="4.916"/> <circle fill="#ED1C24" cx="92.325" cy="53.71" r="5.159"/> <circle fill="#ED1C24" cx="89.722" cy="61.019" r="5.333"/> <circle fill="#ED1C24" cx="87.257" cy="68.437" r="5.444"/> <circle fill="#ED1C24" cx="84.916" cy="75.95" r="5.498"/> <circle fill="#ED1C24" cx="82.685" cy="83.542" r="5.441"/> <circle fill="#ED1C24" cx="80.549" cy="91.22" r="5.325"/> <circle fill="#ED1C24" cx="78.492" cy="98.982" r="5.148"/> <circle fill="#ED1C24" cx="76.502" cy="106.83" r="4.902"/> <circle fill="#ED1C24" cx="74.564" cy="114.764" r="4.583"/> <circle fill="#ED1C24" cx="72.663" cy="122.787" r="4.185"/> <circle fill="#ED1C24" cx="70.784" cy="130.9" r="3.702"/> <circle fill="#ED1C24" cx="68.915" cy="139.105" r="3.129"/> <circle fill="#ED1C24" cx="67.039" cy="147.407" r="2.406"/> <circle fill="#ED1C24" cx="65.143" cy="155.805" r="1.57"/> <circle fill="#ED1C24" cx="63.208" cy="164.388" r="0.55"/> </g> <line fill="none" x1="61.216" y1="172.117" x2="61.216" y2="172.117"/> </g> <g> <line fill="none" x1="188.919" y1="115.019" x2="188.919" y2="115.019"/> <g> <circle fill="#ED1C24" cx="180.963" cy="102.307" r="0.55"/> <circle fill="#ED1C24" cx="175.605" cy="95.444" r="1.5"/> <circle fill="#ED1C24" cx="169.982" cy="88.988" r="2.29"/> <circle fill="#ED1C24" cx="164.123" cy="82.872" r="2.98"/> <circle fill="#ED1C24" cx="158.049" cy="77.074" r="3.538"/> <circle fill="#ED1C24" cx="151.772" cy="71.596" r="4.01"/> <circle fill="#ED1C24" cx="145.31" cy="66.432" r="4.409"/> <circle fill="#ED1C24" cx="138.67" cy="61.583" r="4.741"/> <circle fill="#ED1C24" cx="131.864" cy="57.048" r="5.013"/> <circle fill="#ED1C24" cx="124.898" cy="52.849" r="5.213"/> <circle fill="#ED1C24" cx="117.779" cy="48.983" r="5.356"/> <circle fill="#ED1C24" cx="110.515" cy="45.459" r="5.449"/> <circle fill="#ED1C24" cx="103.109" cy="42.286" r="5.498"/> <circle fill="#ED1C24" cx="95.572" cy="39.485" r="5.446"/> <circle fill="#ED1C24" cx="87.912" cy="37.083" r="5.348"/> <circle fill="#ED1C24" cx="80.139" cy="35.111" r="5.202"/> <circle fill="#ED1C24" cx="72.267" cy="33.605" r="5.001"/> <circle fill="#ED1C24" cx="64.313" cy="32.616" r="4.729"/> <circle fill="#ED1C24" cx="56.301" cy="32.168" r="4.396"/> <circle fill="#ED1C24" cx="48.256" cy="32.302" r="3.997"/> <circle fill="#ED1C24" cx="40.215" cy="33.061" r="3.526"/> <circle fill="#ED1C24" cx="32.218" cy="34.487" r="2.967"/> <circle fill="#ED1C24" cx="24.314" cy="36.598" r="2.281"/> <circle fill="#ED1C24" cx="16.558" cy="39.437" r="1.495"/> <circle fill="#ED1C24" cx="8.997" cy="43.068" r="0.55"/> </g> <line fill="none" x1="5.296" y1="44.922" x2="5.296" y2="44.922"/> </g> <g> <line fill="none" x1="188.484" y1="43.779" x2="188.484" y2="43.779"/> <g> <circle fill="#ED1C24" cx="180.448" cy="40.726" r="0.55"/> <circle fill="#ED1C24" cx="172.556" cy="37.894" r="1.5"/> <circle fill="#ED1C24" cx="164.549" cy="35.762" r="2.29"/> <circle fill="#ED1C24" cx="156.464" cy="34.262" r="2.98"/> <circle fill="#ED1C24" cx="148.339" cy="33.361" r="3.538"/> <circle fill="#ED1C24" cx="140.206" cy="33.048" r="4.01"/> <circle fill="#ED1C24" cx="132.095" cy="33.292" r="4.409"/> <circle fill="#ED1C24" cx="124.031" cy="34.066" r="4.741"/> <circle fill="#ED1C24" cx="116.04" cy="35.344" r="5.013"/> <circle fill="#ED1C24" cx="108.139" cy="37.111" r="5.213"/> <circle fill="#ED1C24" cx="100.347" cy="39.333" r="5.356"/> <circle fill="#ED1C24" cx="92.677" cy="41.982" r="5.449"/> <circle fill="#ED1C24" cx="85.144" cy="45.031" r="5.498"/> <circle fill="#ED1C24" cx="77.758" cy="48.461" r="5.446"/> <circle fill="#ED1C24" cx="70.53" cy="52.261" r="5.348"/> <circle fill="#ED1C24" cx="63.472" cy="56.421" r="5.202"/> <circle fill="#ED1C24" cx="56.592" cy="60.933" r="5.001"/> <circle fill="#ED1C24" cx="49.902" cy="65.802" r="4.729"/> <circle fill="#ED1C24" cx="43.413" cy="71.012" r="4.396"/> <circle fill="#ED1C24" cx="37.138" cy="76.556" r="3.996"/> <circle fill="#ED1C24" cx="31.088" cy="82.435" r="3.525"/> <circle fill="#ED1C24" cx="25.279" cy="88.653" r="2.967"/> <circle fill="#ED1C24" cx="19.729" cy="95.197" r="2.281"/> <circle fill="#ED1C24" cx="14.457" cy="102.09" r="1.495"/> <circle fill="#ED1C24" cx="9.483" cy="109.388" r="0.55"/> </g> <line fill="none" x1="5.729" y1="115.875" x2="5.729" y2="115.875"/> </g> <g> <line fill="none" x1="134.294" y1="171.477" x2="134.294" y2="171.477"/> <g> <circle fill="#ED1C24" cx="130.077" cy="155.669" r="0.55"/> <circle fill="#ED1C24" cx="128.076" cy="146.841" r="1.618"/> <circle fill="#ED1C24" cx="126.207" cy="138.179" r="2.487"/> <circle fill="#ED1C24" cx="124.416" cy="129.606" r="3.229"/> <circle fill="#ED1C24" cx="122.659" cy="121.131" r="3.817"/> <circle fill="#ED1C24" cx="120.896" cy="112.756" r="4.308"/> <circle fill="#ED1C24" cx="119.093" cy="104.486" r="4.702"/> <circle fill="#ED1C24" cx="117.213" cy="96.318" r="5.013"/> <circle fill="#ED1C24" cx="115.222" cy="88.258" r="5.242"/> <circle fill="#ED1C24" cx="113.083" cy="80.315" r="5.393"/> <circle fill="#ED1C24" cx="110.757" cy="72.496" r="5.472"/> <circle fill="#ED1C24" cx="108.204" cy="64.794" r="5.468"/> <circle fill="#ED1C24" cx="105.377" cy="57.236" r="5.384"/> <circle fill="#ED1C24" cx="102.226" cy="49.875" r="5.23"/> <circle fill="#ED1C24" cx="98.694" cy="42.764" r="5.001"/> <circle fill="#ED1C24" cx="94.726" cy="35.962" r="4.69"/> <circle fill="#ED1C24" cx="90.085" cy="29.677" r="4.293"/> <circle fill="#ED1C24" cx="84.523" cy="24.222" r="3.803"/> <circle fill="#ED1C24" cx="78.503" cy="19.335" r="3.216"/> <circle fill="#ED1C24" cx="72.446" cy="14.592" r="2.477"/> <circle fill="#ED1C24" cx="66.775" cy="9.557" r="1.612"/> <circle fill="#ED1C24" cx="61.98" cy="3.986" r="0.55"/> </g> <line fill="none" x1="59.917" y1="0.293" x2="59.917" y2="0.293"/> </g> </g> </g> </svg>
