<svg version="1.1" xmlns="http://www.w3.org/2000/svg" xmlns:xlink="http://www.w3.org/1999/xlink" x="0px" y="0px" viewBox="0 0 162.001 163.223" enable-background="new 0 0 162.001 163.223" xml:space="preserve"> <g id="Layer_1"> </g> <g id="Layer_2"> <g id="Powered-Trails"> <g class="color1"> <g> <path fill="#ED1C24" d="M78.001,88.002L78.001,88.002z"/> <circle fill="#ED1C24" cx="82.264" cy="85.642" r="0.139"/> <circle fill="#ED1C24" cx="86.527" cy="83.282" r="0.277"/> <circle fill="#ED1C24" cx="90.79" cy="80.922" r="0.417"/> <circle fill="#ED1C24" cx="95.053" cy="78.562" r="0.556"/> <circle fill="#ED1C24" cx="99.316" cy="76.202" r="0.694"/> <circle fill="#ED1C24" cx="103.579" cy="73.842" r="0.833"/> <circle fill="#ED1C24" cx="107.843" cy="71.483" r="0.972"/> <circle fill="#ED1C24" cx="112.105" cy="69.123" r="1.111"/> <circle fill="#ED1C24" cx="116.301" cy="66.66" r="1.25"/> <circle fill="#ED1C24" cx="120.433" cy="64.073" r="1.389"/> <circle fill="#ED1C24" cx="124.766" cy="61.836" r="1.528"/> <circle fill="#ED1C24" cx="129.345" cy="60.178" r="1.667"/> <circle fill="#ED1C24" cx="134.173" cy="59.869" r="1.805"/> <circle fill="#ED1C24" cx="137.914" cy="62.763" r="1.944"/> <circle fill="#ED1C24" cx="142.392" cy="63.5" r="2.083"/> <circle fill="#ED1C24" cx="146.39" cy="60.755" r="2.222"/> <circle fill="#ED1C24" cx="149.73" cy="57.21" r="2.361"/> <circle fill="#ED1C24" cx="152.668" cy="53.335" r="2.5"/> </g> <circle fill="#ED1C24" cx="146.334" cy="119.001" r="7.334"/> <g> <path fill="#ED1C24" d="M78.668,88.002L78.668,88.002z"/> <circle fill="#ED1C24" cx="73.922" cy="89.479" r="0.132"/> <circle fill="#ED1C24" cx="69.177" cy="90.955" r="0.263"/> <circle fill="#ED1C24" cx="64.431" cy="92.431" r="0.395"/> <circle fill="#ED1C24" cx="59.686" cy="93.907" r="0.526"/> <circle fill="#ED1C24" cx="54.939" cy="95.384" r="0.658"/> <circle fill="#ED1C24" cx="50.193" cy="96.86" r="0.789"/> <circle fill="#ED1C24" cx="45.394" cy="98.135" r="0.921"/> <circle fill="#ED1C24" cx="40.479" cy="98.845" r="1.053"/> <circle fill="#ED1C24" cx="35.518" cy="98.875" r="1.185"/> <circle fill="#ED1C24" cx="30.669" cy="97.854" r="1.316"/> <circle fill="#ED1C24" cx="26.533" cy="95.177" r="1.447"/> <circle fill="#ED1C24" cx="24.203" cy="90.847" r="1.579"/> <circle fill="#ED1C24" cx="23.747" cy="85.916" r="1.71"/> <circle fill="#ED1C24" cx="24.314" cy="80.979" r="1.842"/> <circle fill="#ED1C24" cx="24.691" cy="76.021" r="1.974"/> <circle fill="#ED1C24" cx="24.381" cy="71.063" r="2.105"/> <circle fill="#ED1C24" cx="22.142" cy="66.75" r="2.237"/> <circle fill="#ED1C24" cx="17.346" cy="66.316" r="2.368"/> <circle fill="#ED1C24" cx="12.668" cy="68.002" r="2.5"/> </g> <g> <path fill="#ED1C24" d="M78.668,88.002L78.668,88.002z"/> <circle fill="#ED1C24" cx="82.582" cy="91.245" r="0.139"/> <circle fill="#ED1C24" cx="86.496" cy="94.488" r="0.278"/> <circle fill="#ED1C24" cx="90.41" cy="97.731" r="0.417"/> <circle fill="#ED1C24" cx="94.325" cy="100.975" r="0.556"/> <circle fill="#ED1C24" cx="98.239" cy="104.217" r="0.695"/> <circle fill="#ED1C24" cx="102.148" cy="107.458" r="0.833"/> <circle fill="#ED1C24" cx="106.155" cy="110.581" r="0.972"/> <circle fill="#ED1C24" cx="110.34" cy="113.467" r="1.111"/> <circle fill="#ED1C24" cx="114.714" cy="116.05" r="1.25"/> <circle fill="#ED1C24" cx="119.342" cy="118.147" r="1.389"/> <circle fill="#ED1C24" cx="124.292" cy="119.234" r="1.528"/> <circle fill="#ED1C24" cx="128.999" cy="117.699" r="1.667"/> <circle fill="#ED1C24" cx="131.164" cy="113.188" r="1.806"/> <circle fill="#ED1C24" cx="131.92" cy="108.16" r="1.944"/> <circle fill="#ED1C24" cx="133.844" cy="103.51" r="2.083"/> <circle fill="#ED1C24" cx="138.263" cy="104.308" r="2.223"/> <circle fill="#ED1C24" cx="141.397" cy="108.302" r="2.361"/> <circle fill="#ED1C24" cx="144.002" cy="112.669" r="2.5"/> </g> <g> <path fill="#ED1C24" d="M78.667,88.001L78.667,88.001z"/> <circle fill="#ED1C24" cx="77.817" cy="83.085" r="0.131"/> <circle fill="#ED1C24" cx="76.968" cy="78.169" r="0.263"/> <circle fill="#ED1C24" cx="76.118" cy="73.254" r="0.395"/> <circle fill="#ED1C24" cx="75.269" cy="68.338" r="0.526"/> <circle fill="#ED1C24" cx="74.419" cy="63.422" r="0.658"/> <circle fill="#ED1C24" cx="73.569" cy="58.506" r="0.79"/> <circle fill="#ED1C24" cx="72.72" cy="53.591" r="0.921"/> <circle fill="#ED1C24" cx="71.87" cy="48.675" r="1.052"/> <circle fill="#ED1C24" cx="71.021" cy="43.759" r="1.184"/> <circle fill="#ED1C24" cx="70.171" cy="38.844" r="1.315"/> <circle fill="#ED1C24" cx="69.311" cy="33.936" r="1.447"/> <circle fill="#ED1C24" cx="68.438" cy="29.041" r="1.579"/> <circle fill="#ED1C24" cx="69.653" cy="24.285" r="1.71"/> <circle fill="#ED1C24" cx="73.855" cy="21.842" r="1.842"/> <circle fill="#ED1C24" cx="78.822" cy="21.917" r="1.974"/> <circle fill="#ED1C24" cx="83.78" cy="22.429" r="2.105"/> <circle fill="#ED1C24" cx="88.69" cy="21.679" r="2.237"/> <circle fill="#ED1C24" cx="92.615" cy="18.725" r="2.368"/> <circle fill="#ED1C24" cx="94.001" cy="14.001" r="2.5"/> </g> <g> <path fill="#ED1C24" d="M78.001,87.336L78.001,87.336z"/> <circle fill="#ED1C24" cx="75.168" cy="83.31" r="0.208"/> <circle fill="#ED1C24" cx="72.26" cy="79.331" r="0.417"/> <circle fill="#ED1C24" cx="69.279" cy="75.408" r="0.625"/> <circle fill="#ED1C24" cx="66.211" cy="71.552" r="0.833"/> <circle fill="#ED1C24" cx="63.025" cy="67.792" r="1.042"/> <circle fill="#ED1C24" cx="59.665" cy="64.189" r="1.25"/> <circle fill="#ED1C24" cx="55.977" cy="60.922" r="1.458"/> <circle fill="#ED1C24" cx="51.477" cy="59.455" r="1.667"/> <circle fill="#ED1C24" cx="46.68" cy="60.565" r="1.875"/> <circle fill="#ED1C24" cx="41.835" cy="61.475" r="2.083"/> <circle fill="#ED1C24" cx="36.926" cy="61.623" r="2.292"/> <circle fill="#ED1C24" cx="35.335" cy="58.002" r="2.5"/> </g> <g> <path fill="#ED1C24" d="M78.668,88.668L78.668,88.668z"/> <circle fill="#ED1C24" cx="76.608" cy="93.197" r="0.125"/> <circle fill="#ED1C24" cx="74.583" cy="97.743" r="0.25"/> <circle fill="#ED1C24" cx="72.587" cy="102.307" r="0.375"/> <circle fill="#ED1C24" cx="70.627" cy="106.884" r="0.5"/> <circle fill="#ED1C24" cx="68.706" cy="111.477" r="0.625"/> <circle fill="#ED1C24" cx="66.833" cy="116.092" r="0.75"/> <circle fill="#ED1C24" cx="65.022" cy="120.729" r="0.875"/> <circle fill="#ED1C24" cx="63.297" cy="125.398" r="1"/> <circle fill="#ED1C24" cx="61.701" cy="130.117" r="1.125"/> <circle fill="#ED1C24" cx="60.356" cy="134.914" r="1.25"/> <circle fill="#ED1C24" cx="59.58" cy="139.828" r="1.375"/> <circle fill="#ED1C24" cx="59.402" cy="144.802" r="1.5"/> <circle fill="#ED1C24" cx="60.016" cy="149.736" r="1.625"/> <circle fill="#ED1C24" cx="61.766" cy="154.385" r="1.75"/> <circle fill="#ED1C24" cx="64.974" cy="158.149" r="1.875"/> <circle fill="#ED1C24" cx="69.399" cy="160.36" r="2"/> <circle fill="#ED1C24" cx="74.312" cy="161.098" r="2.125"/> <circle fill="#ED1C24" cx="79.258" cy="160.625" r="2.25"/> <circle fill="#ED1C24" cx="83.861" cy="158.774" r="2.375"/> <circle fill="#ED1C24" cx="87.335" cy="155.334" r="2.5"/> </g> <circle fill="#ED1C24" cx="7.334" cy="70.001" r="7.334"/> <circle fill="#ED1C24" cx="93.667" cy="7.334" r="7.334"/> <circle fill="#ED1C24" cx="154.667" cy="48.335" r="7.334"/> <circle fill="#ED1C24" cx="33.668" cy="52.334" r="7.334"/> <circle fill="#ED1C24" cx="92.001" cy="151.668" r="7.334"/> </g> </g> </g> </svg>
