<?xml version="1.0" encoding="utf-8"?>
<!-- Generator: Adobe Illustrator 16.0.4, SVG Export Plug-In . SVG Version: 6.00 Build 0)  -->
<!DOCTYPE svg PUBLIC "-//W3C//DTD SVG 1.1//EN" "http://www.w3.org/Graphics/SVG/1.1/DTD/svg11.dtd">
<svg version="1.1" id="Layer_1" xmlns="http://www.w3.org/2000/svg" xmlns:xlink="http://www.w3.org/1999/xlink" x="0px" y="0px"
	 width="1261.42px" height="822.051px" viewBox="0 0 1261.42 822.051" enable-background="new 0 0 1261.42 822.051"
	 xml:space="preserve">
<g id="Layer_1_1_">
</g>
<g id="Layer_2">
	<g id="Standard-Half">
		<g>
			<path fill="#ED1F24" d="M817.112,96.046c-10.549,25.015-63.707,80.192-83.64,71.747l0,0
				c-19.926-8.398-17.427-84.967-6.852-109.967l0,0c10.54-24.98,39.366-36.691,64.378-26.14l0,0
				C815.972,42.254,827.675,71.08,817.112,96.046z"/>
			<path fill="#ED1F24" d="M540.469,58.187c10.229,25.142,11.653,101.753-8.406,109.875l0,0
				c-20.029,8.148-72.404-47.758-82.604-72.919l0,0c-10.21-25.111,1.889-53.78,27.038-64.002l0,0
				C501.627,20.954,530.281,33.056,540.469,58.187z"/>
			<path fill="#ED1F24" d="M315.732,224.629c25.011,10.544,80.188,63.707,71.744,83.636l0,0
				c-8.399,19.926-84.968,17.431-109.967,6.852l0,0c-24.98-10.536-36.696-39.367-26.14-64.374l0,0
				C261.94,225.765,290.759,214.061,315.732,224.629z"/>
			<path fill="#ED1F24" d="M277.87,501.272c25.146-10.229,101.749-11.657,109.879,8.406l0,0c8.149,20.029-47.762,72.4-72.919,82.604
				l0,0c-25.119,10.214-53.78-1.885-64.006-27.038l0,0C240.637,540.113,252.74,511.456,277.87,501.272z"/>
			<path fill="#ED1F24" d="M921.79,190.743c-19.319,19.069-89.551,49.704-104.732,34.277l0,0
				c-15.192-15.385,16.414-85.167,35.752-104.213l0,0c19.292-19.051,50.406-18.84,69.479,0.479l0,0
				C941.312,140.601,941.104,171.709,921.79,190.743z"/>
			<path fill="#ED1F24" d="M683.957,49.469c-0.169,27.142-28.171,98.464-49.819,98.295l0,0
				c-21.618-0.131-48.613-71.833-48.41-98.974l0,0C585.904,21.679,608.052-0.177,635.197,0l0,0
				C662.315,0.208,684.16,22.347,683.957,49.469z"/>
			<path fill="#ED1F24" d="M410.423,119.951c19.076,19.315,49.711,89.547,34.284,104.731l0,0
				c-15.384,15.196-85.167-16.413-104.221-35.751l0,0c-19.05-19.292-18.839-50.41,0.483-69.476l0,0
				C360.289,100.421,391.392,100.636,410.423,119.951z"/>
			<path fill="#ED1F24" d="M269.149,357.784c27.146,0.173,98.471,28.167,98.298,49.812l0,0
				c-0.134,21.626-71.832,48.617-98.978,48.418l0,0c-27.111-0.177-48.959-22.324-48.787-49.474l0,0
				C219.891,379.426,242.034,357.577,269.149,357.784z"/>
		</g>
		<g>
			<path fill="#69BD45" d="M720.947,763.863c-10.226-25.146-11.653-101.745,8.41-109.875l0,0
				c20.033-8.148,72.404,47.758,82.604,72.919l0,0c10.218,25.118-1.893,53.78-27.034,64.006l0,0
				C759.796,801.096,731.131,788.994,720.947,763.863z"/>
			<path fill="#69BD45" d="M945.688,597.429c-25.011-10.553-80.188-63.711-71.748-83.644l0,0
				c8.402-19.926,84.968-17.431,109.972-6.852l0,0c24.98,10.54,36.691,39.37,26.14,64.378l0,0
				C999.483,596.285,970.657,607.992,945.688,597.429z"/>
			<path fill="#69BD45" d="M983.55,320.786c-25.146,10.226-101.753,11.653-109.875-8.41l0,0
				c-8.152-20.029,47.758-72.404,72.915-82.604l0,0c25.118-10.214,53.78,1.889,64.006,27.038l0,0
				C1020.783,281.94,1008.677,310.598,983.55,320.786z"/>
			<path fill="#69BD45" d="M444.312,726.005c10.549-25.007,63.711-80.188,83.64-71.744l0,0c19.93,8.402,17.427,84.968,6.852,109.972
				l0,0c-10.54,24.98-39.363,36.688-64.378,26.14l0,0C445.448,779.801,433.745,750.973,444.312,726.005z"/>
			<path fill="#69BD45" d="M577.463,772.58c0.173-27.145,28.167-98.459,49.819-98.294l0,0c21.622,0.138,48.617,71.832,48.414,98.978
				l0,0c-0.173,27.111-22.328,48.963-49.474,48.787l0,0C599.108,821.843,577.26,799.699,577.463,772.58z"/>
			<path fill="#69BD45" d="M850.997,702.095c-19.072-19.315-49.715-89.539-34.284-104.728l0,0
				c15.384-15.192,85.167,16.413,104.221,35.751l0,0c19.042,19.296,18.831,50.41-0.487,69.479l0,0
				C901.131,721.625,870.024,721.414,850.997,702.095z"/>
			<path fill="#69BD45" d="M992.267,464.27c-27.141-0.177-98.467-28.167-98.294-49.812l0,0
				c0.134-21.626,71.832-48.621,98.978-48.418l0,0c27.111,0.177,48.959,22.324,48.783,49.474l0,0
				C1041.529,442.625,1019.386,464.477,992.267,464.27z"/>
			<path fill="#69BD45" d="M339.638,631.314c19.315-19.069,89.543-49.703,104.728-34.28l0,0
				c15.196,15.384-16.409,85.167-35.747,104.221l0,0c-19.295,19.046-50.406,18.831-69.483-0.487l0,0
				C320.104,681.448,320.319,650.345,339.638,631.314z"/>
		</g>
	</g>
</g>
</svg>
