<svg version="1.1" xmlns="http://www.w3.org/2000/svg" xmlns:xlink="http://www.w3.org/1999/xlink" x="0px" y="0px" viewBox="0 0 213.626 213.625" enable-background="new 0 0 213.626 213.625" xml:space="preserve"> <g id="Layer_1"> </g> <g id="Layer_2"> <g id="Standard-Trails"> <g class="color2"> <path fill="#69BD45" d="M94.071,200.834c-0.008-7.072,7.145-25.706,12.784-25.706l0,0c5.634-0.007,12.808,18.617,12.808,25.689 l0,0c0.009,7.064-5.72,12.8-12.791,12.808l0,0C99.808,213.625,94.071,207.898,94.071,200.834z"/> <path fill="#69BD45" d="M164.621,182.642c-5.006-4.995-13.126-23.229-9.138-27.217l0,0c3.979-3.988,22.221,4.107,27.223,9.108 l0,0c5,4.989,5.006,13.096,0.011,18.102l0,0C177.722,187.63,169.616,187.636,164.621,182.642z"/> <path fill="#69BD45" d="M200.836,119.554c-7.072,0.008-25.708-7.144-25.706-12.783l0,0c-0.008-5.634,18.617-12.808,25.688-12.809 l0,0c7.064-0.008,12.8,5.72,12.808,12.792l0,0C213.626,113.819,207.899,119.553,200.836,119.554z"/> <path fill="#69BD45" d="M182.643,49.005c-4.994,5.006-23.229,13.127-27.216,9.138l0,0c-3.989-3.978,4.107-22.221,9.107-27.222 l0,0c4.989-5,13.096-5.007,18.102-0.011l0,0C187.632,35.904,187.638,44.009,182.643,49.005z"/> <path fill="#69BD45" d="M119.554,12.791c0.01,7.071-7.144,25.708-12.783,25.706l0,0c-5.633,0.008-12.807-18.617-12.808-25.689 l0,0C93.955,5.744,99.682,0.007,106.755,0l0,0C113.819,0,119.554,5.726,119.554,12.791z"/> <path fill="#69BD45" d="M49.005,30.984c5.007,4.994,13.127,23.229,9.138,27.216l0,0c-3.978,3.988-22.22-4.108-27.222-9.108l0,0 c-5-4.989-5.007-13.095-0.011-18.101l0,0C35.905,25.994,44.009,25.989,49.005,30.984z"/> <path fill="#69BD45" d="M12.79,94.073c7.072-0.01,25.709,7.143,25.707,12.783l0,0c0.008,5.633-18.617,12.807-25.689,12.808l0,0 c-7.064,0.008-12.8-5.719-12.808-12.792l0,0C0,99.807,5.726,94.073,12.79,94.073z"/> <path fill="#69BD45" d="M30.984,164.622c4.993-5.006,23.229-13.126,27.216-9.138l0,0c3.988,3.979-4.108,22.22-9.108,27.223l0,0 c-4.989,5-13.094,5.006-18.102,0.011l0,0C25.994,177.721,25.989,169.617,30.984,164.622z"/> <path fill="#69BD45" d="M62.395,143.678c1.581-1.553,34.838-28.381,35.155-28.058l0,0c0.317,0.324-27.952,32.233-29.536,33.785 l0,0c-1.579,1.552-4.122,1.527-5.675-0.054l0,0C60.789,147.77,60.812,145.228,62.395,143.678z"/> <path fill="#69BD45" d="M102.979,164.285c0.021-2.218,3.404-44.717,3.859-44.711l0,0c0.454,0.004,4.188,42.568,4.166,44.786l0,0 c-0.021,2.215-1.835,3.995-4.052,3.975l0,0C104.738,168.312,102.958,166.499,102.979,164.285z"/> <path fill="#69BD45" d="M143.569,151.231c-1.553-1.581-28.383-34.836-28.058-35.154l0,0c0.324-0.318,32.233,27.952,33.785,29.535 l0,0c1.551,1.581,1.527,4.122-0.054,5.675l0,0C147.661,152.837,145.12,152.815,143.569,151.231z"/> <path fill="#69BD45" d="M164.176,110.646c-2.217-0.021-44.717-3.403-44.712-3.858l0,0c0.004-0.453,42.57-4.188,44.787-4.166l0,0 c2.215,0.02,3.997,1.835,3.977,4.052l0,0C168.206,108.888,166.391,110.667,164.176,110.646z"/> <path fill="#69BD45" d="M151.122,70.056c-1.579,1.554-34.836,28.384-35.154,28.057l0,0c-0.319-0.323,27.952-32.231,29.535-33.784 l0,0c1.581-1.552,4.123-1.527,5.675,0.054l0,0C152.73,65.965,152.706,68.506,151.122,70.056z"/> <path fill="#69BD45" d="M110.535,49.451c-0.02,2.216-3.401,44.716-3.857,44.711l0,0c-0.453-0.004-4.188-42.569-4.165-44.787l0,0 c0.019-2.215,1.834-3.995,4.051-3.975l0,0C108.778,45.421,110.558,47.235,110.535,49.451z"/> <path fill="#69BD45" d="M69.947,62.502C71.5,64.084,98.33,97.34,98.004,97.659l0,0c-0.323,0.318-32.23-27.953-33.783-29.536l0,0 c-1.553-1.58-1.53-4.121,0.053-5.676l0,0C65.855,60.896,68.396,60.92,69.947,62.502z"/> <path fill="#69BD45" d="M49.34,103.09c2.217,0.02,44.718,3.402,44.713,3.858l0,0c-0.004,0.454-42.57,4.188-44.788,4.167l0,0 c-2.215-0.021-3.995-1.835-3.975-4.054l0,0C45.312,104.848,47.125,103.068,49.34,103.09z"/> </g> <g class="color1"> <path fill="#ED1F24" d="M58.575,188.898c2.698-6.537,16.437-21.017,21.647-18.858l0,0c5.207,2.149,4.709,22.102,2.003,28.636l0,0 c-2.695,6.529-10.183,9.637-16.719,6.938l0,0C58.979,202.91,55.872,195.424,58.575,188.898z"/> <path fill="#ED1F24" d="M131.516,198.648c-2.715-6.53-3.24-26.484,1.972-28.642l0,0c5.201-2.163,18.957,12.298,21.665,18.832l0,0 c2.71,6.522-0.387,14.014-6.917,16.728l0,0C141.709,208.269,134.219,205.174,131.516,198.648z"/> <path fill="#ED1F24" d="M188.898,155.051c-6.536-2.699-21.018-16.438-18.858-21.646l0,0c2.148-5.208,22.102-4.709,28.636-2.004 l0,0c6.529,2.695,9.637,10.182,6.938,16.719l0,0C202.911,154.646,195.426,157.754,188.898,155.051z"/> <path fill="#ED1F24" d="M198.649,82.111c-6.53,2.714-26.485,3.239-28.642-1.972l0,0c-2.163-5.202,12.298-18.958,18.831-21.665 l0,0c6.522-2.711,14.014,0.385,16.729,6.916l0,0C208.271,71.917,205.176,79.407,198.649,82.111z"/> <path fill="#ED1F24" d="M155.052,24.727c-2.697,6.537-16.438,21.018-21.647,18.858l0,0c-5.207-2.148-4.708-22.101-2.003-28.635 l0,0c2.695-6.529,10.182-9.638,16.719-6.938l0,0C154.647,10.715,157.755,18.2,155.052,24.727z"/> <path fill="#ED1F24" d="M82.11,14.978c2.716,6.53,3.24,26.485-1.971,28.641l0,0c-5.201,2.163-18.957-12.297-21.665-18.832l0,0 c-2.711-6.522,0.385-14.014,6.916-16.727l0,0C71.918,5.355,79.407,8.451,82.11,14.978z"/> <path fill="#ED1F24" d="M24.728,58.575c6.537,2.698,21.018,16.437,18.858,21.646l0,0c-2.148,5.208-22.101,4.708-28.636,2.004l0,0 C8.421,79.53,5.313,72.044,8.013,65.506l0,0C10.716,58.979,18.2,55.872,24.728,58.575z"/> <path fill="#ED1F24" d="M14.978,131.515c6.529-2.714,26.484-3.238,28.641,1.972l0,0c2.164,5.202-12.297,18.957-18.83,21.666l0,0 c-6.523,2.71-14.014-0.386-16.729-6.917l0,0C5.354,141.708,8.451,134.219,14.978,131.515z"/> <path fill="#ED1F24" d="M80.778,157.684c0.866-2.039,20.641-39.427,21.06-39.249l0,0c0.418,0.178-12.806,40.351-13.676,42.391 l0,0c-0.866,2.04-3.224,2.988-5.264,2.121l0,0C80.861,162.079,79.909,159.723,80.778,157.684z"/> <path fill="#ED1F24" d="M124.651,162c-0.83-2.056-13.53-43.09-13.108-43.26l0,0c0.421-0.171,19.723,38.202,20.551,40.26l0,0 c0.829,2.053-0.166,4.393-2.222,5.223l0,0C127.816,165.049,125.479,164.053,124.651,162z"/> <path fill="#ED1F24" d="M157.575,132.847c-2.039-0.866-39.427-20.641-39.249-21.058l0,0c0.177-0.419,40.351,12.805,42.391,13.675 l0,0c2.038,0.864,2.988,3.222,2.121,5.264l0,0C161.971,132.764,159.614,133.715,157.575,132.847z"/> <path fill="#ED1F24" d="M161.891,88.974c-2.056,0.83-43.09,13.53-43.259,13.108l0,0c-0.172-0.421,38.202-19.723,40.258-20.55l0,0 c2.055-0.829,4.394,0.165,5.223,2.222l0,0C164.94,85.809,163.944,88.148,161.891,88.974z"/> <path fill="#ED1F24" d="M132.736,56.048c-0.864,2.042-20.639,39.431-21.057,39.251l0,0c-0.418-0.177,12.805-40.351,13.675-42.392 l0,0c0.866-2.037,3.223-2.988,5.264-2.121l0,0C132.657,51.655,133.605,54.011,132.736,56.048z"/> <path fill="#ED1F24" d="M88.865,51.736c0.831,2.056,13.53,43.09,13.108,43.26l0,0c-0.422,0.17-19.722-38.202-20.551-40.26l0,0 c-0.828-2.054,0.165-4.394,2.223-5.223l0,0C85.699,48.686,88.039,49.681,88.865,51.736z"/> <path fill="#ED1F24" d="M55.94,80.889c2.04,0.864,39.429,20.639,39.249,21.059l0,0c-0.177,0.417-40.35-12.807-42.391-13.677l0,0 c-2.037-0.865-2.988-3.222-2.121-5.263l0,0C51.547,80.969,53.901,80.02,55.94,80.889z"/> <path fill="#ED1F24" d="M51.626,124.76c2.057-0.83,43.091-13.53,43.261-13.107l0,0c0.169,0.421-38.203,19.723-40.261,20.549l0,0 c-2.054,0.832-4.392-0.165-5.223-2.22l0,0C48.576,127.925,49.571,125.588,51.626,124.76z"/> </g> </g> </g> </svg>
